G75*
%MOIN*%
%OFA0B0*%
%FSLAX25Y25*%
%IPPOS*%
%LPD*%
%AMOC8*
5,1,8,0,0,1.08239X$1,22.5*
%
%ADD10C,0.00000*%
D10*
X0002800Y0011000D02*
X0002800Y0221000D01*
X0002803Y0221242D01*
X0002812Y0221483D01*
X0002826Y0221724D01*
X0002847Y0221965D01*
X0002873Y0222205D01*
X0002905Y0222445D01*
X0002943Y0222684D01*
X0002986Y0222921D01*
X0003036Y0223158D01*
X0003091Y0223393D01*
X0003151Y0223627D01*
X0003218Y0223859D01*
X0003289Y0224090D01*
X0003367Y0224319D01*
X0003450Y0224546D01*
X0003538Y0224771D01*
X0003632Y0224994D01*
X0003731Y0225214D01*
X0003836Y0225432D01*
X0003945Y0225647D01*
X0004060Y0225860D01*
X0004180Y0226070D01*
X0004305Y0226276D01*
X0004435Y0226480D01*
X0004570Y0226681D01*
X0004710Y0226878D01*
X0004854Y0227072D01*
X0005003Y0227262D01*
X0005157Y0227448D01*
X0005315Y0227631D01*
X0005477Y0227810D01*
X0005644Y0227985D01*
X0005815Y0228156D01*
X0005990Y0228323D01*
X0006169Y0228485D01*
X0006352Y0228643D01*
X0006538Y0228797D01*
X0006728Y0228946D01*
X0006922Y0229090D01*
X0007119Y0229230D01*
X0007320Y0229365D01*
X0007524Y0229495D01*
X0007730Y0229620D01*
X0007940Y0229740D01*
X0008153Y0229855D01*
X0008368Y0229964D01*
X0008586Y0230069D01*
X0008806Y0230168D01*
X0009029Y0230262D01*
X0009254Y0230350D01*
X0009481Y0230433D01*
X0009710Y0230511D01*
X0009941Y0230582D01*
X0010173Y0230649D01*
X0010407Y0230709D01*
X0010642Y0230764D01*
X0010879Y0230814D01*
X0011116Y0230857D01*
X0011355Y0230895D01*
X0011595Y0230927D01*
X0011835Y0230953D01*
X0012076Y0230974D01*
X0012317Y0230988D01*
X0012558Y0230997D01*
X0012800Y0231000D01*
X0039300Y0231000D01*
X0038700Y0231000D02*
X0038700Y0214961D01*
X0038701Y0214882D01*
X0038705Y0214804D01*
X0038714Y0214726D01*
X0038726Y0214649D01*
X0038742Y0214572D01*
X0038763Y0214497D01*
X0038787Y0214422D01*
X0038814Y0214349D01*
X0038846Y0214277D01*
X0038881Y0214207D01*
X0038919Y0214139D01*
X0038961Y0214073D01*
X0039006Y0214009D01*
X0039054Y0213947D01*
X0039106Y0213888D01*
X0039160Y0213831D01*
X0039217Y0213778D01*
X0039277Y0213727D01*
X0039339Y0213680D01*
X0039404Y0213635D01*
X0039471Y0213594D01*
X0039539Y0213557D01*
X0039610Y0213523D01*
X0039682Y0213492D01*
X0039756Y0213466D01*
X0039831Y0213443D01*
X0039907Y0213424D01*
X0039984Y0213408D01*
X0040061Y0213397D01*
X0040139Y0213390D01*
X0040217Y0213386D01*
X0067383Y0213386D01*
X0067461Y0213390D01*
X0067539Y0213397D01*
X0067616Y0213408D01*
X0067693Y0213424D01*
X0067769Y0213443D01*
X0067844Y0213466D01*
X0067918Y0213492D01*
X0067990Y0213523D01*
X0068061Y0213557D01*
X0068129Y0213594D01*
X0068196Y0213635D01*
X0068261Y0213680D01*
X0068323Y0213727D01*
X0068383Y0213778D01*
X0068440Y0213831D01*
X0068494Y0213888D01*
X0068546Y0213947D01*
X0068594Y0214009D01*
X0068639Y0214073D01*
X0068681Y0214139D01*
X0068719Y0214207D01*
X0068754Y0214277D01*
X0068786Y0214349D01*
X0068813Y0214422D01*
X0068837Y0214497D01*
X0068858Y0214572D01*
X0068874Y0214649D01*
X0068886Y0214726D01*
X0068895Y0214804D01*
X0068899Y0214882D01*
X0068900Y0214961D01*
X0068900Y0231000D01*
X0069300Y0231000D02*
X0092800Y0231000D01*
X0093042Y0230997D01*
X0093283Y0230988D01*
X0093524Y0230974D01*
X0093765Y0230953D01*
X0094005Y0230927D01*
X0094245Y0230895D01*
X0094484Y0230857D01*
X0094721Y0230814D01*
X0094958Y0230764D01*
X0095193Y0230709D01*
X0095427Y0230649D01*
X0095659Y0230582D01*
X0095890Y0230511D01*
X0096119Y0230433D01*
X0096346Y0230350D01*
X0096571Y0230262D01*
X0096794Y0230168D01*
X0097014Y0230069D01*
X0097232Y0229964D01*
X0097447Y0229855D01*
X0097660Y0229740D01*
X0097870Y0229620D01*
X0098076Y0229495D01*
X0098280Y0229365D01*
X0098481Y0229230D01*
X0098678Y0229090D01*
X0098872Y0228946D01*
X0099062Y0228797D01*
X0099248Y0228643D01*
X0099431Y0228485D01*
X0099610Y0228323D01*
X0099785Y0228156D01*
X0099956Y0227985D01*
X0100123Y0227810D01*
X0100285Y0227631D01*
X0100443Y0227448D01*
X0100597Y0227262D01*
X0100746Y0227072D01*
X0100890Y0226878D01*
X0101030Y0226681D01*
X0101165Y0226480D01*
X0101295Y0226276D01*
X0101420Y0226070D01*
X0101540Y0225860D01*
X0101655Y0225647D01*
X0101764Y0225432D01*
X0101869Y0225214D01*
X0101968Y0224994D01*
X0102062Y0224771D01*
X0102150Y0224546D01*
X0102233Y0224319D01*
X0102311Y0224090D01*
X0102382Y0223859D01*
X0102449Y0223627D01*
X0102509Y0223393D01*
X0102564Y0223158D01*
X0102614Y0222921D01*
X0102657Y0222684D01*
X0102695Y0222445D01*
X0102727Y0222205D01*
X0102753Y0221965D01*
X0102774Y0221724D01*
X0102788Y0221483D01*
X0102797Y0221242D01*
X0102800Y0221000D01*
X0102800Y0011000D01*
X0102797Y0010758D01*
X0102788Y0010517D01*
X0102774Y0010276D01*
X0102753Y0010035D01*
X0102727Y0009795D01*
X0102695Y0009555D01*
X0102657Y0009316D01*
X0102614Y0009079D01*
X0102564Y0008842D01*
X0102509Y0008607D01*
X0102449Y0008373D01*
X0102382Y0008141D01*
X0102311Y0007910D01*
X0102233Y0007681D01*
X0102150Y0007454D01*
X0102062Y0007229D01*
X0101968Y0007006D01*
X0101869Y0006786D01*
X0101764Y0006568D01*
X0101655Y0006353D01*
X0101540Y0006140D01*
X0101420Y0005930D01*
X0101295Y0005724D01*
X0101165Y0005520D01*
X0101030Y0005319D01*
X0100890Y0005122D01*
X0100746Y0004928D01*
X0100597Y0004738D01*
X0100443Y0004552D01*
X0100285Y0004369D01*
X0100123Y0004190D01*
X0099956Y0004015D01*
X0099785Y0003844D01*
X0099610Y0003677D01*
X0099431Y0003515D01*
X0099248Y0003357D01*
X0099062Y0003203D01*
X0098872Y0003054D01*
X0098678Y0002910D01*
X0098481Y0002770D01*
X0098280Y0002635D01*
X0098076Y0002505D01*
X0097870Y0002380D01*
X0097660Y0002260D01*
X0097447Y0002145D01*
X0097232Y0002036D01*
X0097014Y0001931D01*
X0096794Y0001832D01*
X0096571Y0001738D01*
X0096346Y0001650D01*
X0096119Y0001567D01*
X0095890Y0001489D01*
X0095659Y0001418D01*
X0095427Y0001351D01*
X0095193Y0001291D01*
X0094958Y0001236D01*
X0094721Y0001186D01*
X0094484Y0001143D01*
X0094245Y0001105D01*
X0094005Y0001073D01*
X0093765Y0001047D01*
X0093524Y0001026D01*
X0093283Y0001012D01*
X0093042Y0001003D01*
X0092800Y0001000D01*
X0012800Y0001000D01*
X0012558Y0001003D01*
X0012317Y0001012D01*
X0012076Y0001026D01*
X0011835Y0001047D01*
X0011595Y0001073D01*
X0011355Y0001105D01*
X0011116Y0001143D01*
X0010879Y0001186D01*
X0010642Y0001236D01*
X0010407Y0001291D01*
X0010173Y0001351D01*
X0009941Y0001418D01*
X0009710Y0001489D01*
X0009481Y0001567D01*
X0009254Y0001650D01*
X0009029Y0001738D01*
X0008806Y0001832D01*
X0008586Y0001931D01*
X0008368Y0002036D01*
X0008153Y0002145D01*
X0007940Y0002260D01*
X0007730Y0002380D01*
X0007524Y0002505D01*
X0007320Y0002635D01*
X0007119Y0002770D01*
X0006922Y0002910D01*
X0006728Y0003054D01*
X0006538Y0003203D01*
X0006352Y0003357D01*
X0006169Y0003515D01*
X0005990Y0003677D01*
X0005815Y0003844D01*
X0005644Y0004015D01*
X0005477Y0004190D01*
X0005315Y0004369D01*
X0005157Y0004552D01*
X0005003Y0004738D01*
X0004854Y0004928D01*
X0004710Y0005122D01*
X0004570Y0005319D01*
X0004435Y0005520D01*
X0004305Y0005724D01*
X0004180Y0005930D01*
X0004060Y0006140D01*
X0003945Y0006353D01*
X0003836Y0006568D01*
X0003731Y0006786D01*
X0003632Y0007006D01*
X0003538Y0007229D01*
X0003450Y0007454D01*
X0003367Y0007681D01*
X0003289Y0007910D01*
X0003218Y0008141D01*
X0003151Y0008373D01*
X0003091Y0008607D01*
X0003036Y0008842D01*
X0002986Y0009079D01*
X0002943Y0009316D01*
X0002905Y0009555D01*
X0002873Y0009795D01*
X0002847Y0010035D01*
X0002826Y0010276D01*
X0002812Y0010517D01*
X0002803Y0010758D01*
X0002800Y0011000D01*
X0007400Y0216200D02*
X0007403Y0216445D01*
X0007412Y0216691D01*
X0007427Y0216936D01*
X0007448Y0217180D01*
X0007475Y0217424D01*
X0007508Y0217667D01*
X0007547Y0217910D01*
X0007592Y0218151D01*
X0007643Y0218391D01*
X0007700Y0218630D01*
X0007762Y0218867D01*
X0007831Y0219103D01*
X0007905Y0219337D01*
X0007985Y0219569D01*
X0008070Y0219799D01*
X0008161Y0220027D01*
X0008258Y0220252D01*
X0008360Y0220476D01*
X0008468Y0220696D01*
X0008581Y0220914D01*
X0008699Y0221129D01*
X0008823Y0221341D01*
X0008951Y0221550D01*
X0009085Y0221756D01*
X0009224Y0221958D01*
X0009368Y0222157D01*
X0009517Y0222352D01*
X0009670Y0222544D01*
X0009828Y0222732D01*
X0009990Y0222916D01*
X0010158Y0223095D01*
X0010329Y0223271D01*
X0010505Y0223442D01*
X0010684Y0223610D01*
X0010868Y0223772D01*
X0011056Y0223930D01*
X0011248Y0224083D01*
X0011443Y0224232D01*
X0011642Y0224376D01*
X0011844Y0224515D01*
X0012050Y0224649D01*
X0012259Y0224777D01*
X0012471Y0224901D01*
X0012686Y0225019D01*
X0012904Y0225132D01*
X0013124Y0225240D01*
X0013348Y0225342D01*
X0013573Y0225439D01*
X0013801Y0225530D01*
X0014031Y0225615D01*
X0014263Y0225695D01*
X0014497Y0225769D01*
X0014733Y0225838D01*
X0014970Y0225900D01*
X0015209Y0225957D01*
X0015449Y0226008D01*
X0015690Y0226053D01*
X0015933Y0226092D01*
X0016176Y0226125D01*
X0016420Y0226152D01*
X0016664Y0226173D01*
X0016909Y0226188D01*
X0017155Y0226197D01*
X0017400Y0226200D01*
X0017645Y0226197D01*
X0017891Y0226188D01*
X0018136Y0226173D01*
X0018380Y0226152D01*
X0018624Y0226125D01*
X0018867Y0226092D01*
X0019110Y0226053D01*
X0019351Y0226008D01*
X0019591Y0225957D01*
X0019830Y0225900D01*
X0020067Y0225838D01*
X0020303Y0225769D01*
X0020537Y0225695D01*
X0020769Y0225615D01*
X0020999Y0225530D01*
X0021227Y0225439D01*
X0021452Y0225342D01*
X0021676Y0225240D01*
X0021896Y0225132D01*
X0022114Y0225019D01*
X0022329Y0224901D01*
X0022541Y0224777D01*
X0022750Y0224649D01*
X0022956Y0224515D01*
X0023158Y0224376D01*
X0023357Y0224232D01*
X0023552Y0224083D01*
X0023744Y0223930D01*
X0023932Y0223772D01*
X0024116Y0223610D01*
X0024295Y0223442D01*
X0024471Y0223271D01*
X0024642Y0223095D01*
X0024810Y0222916D01*
X0024972Y0222732D01*
X0025130Y0222544D01*
X0025283Y0222352D01*
X0025432Y0222157D01*
X0025576Y0221958D01*
X0025715Y0221756D01*
X0025849Y0221550D01*
X0025977Y0221341D01*
X0026101Y0221129D01*
X0026219Y0220914D01*
X0026332Y0220696D01*
X0026440Y0220476D01*
X0026542Y0220252D01*
X0026639Y0220027D01*
X0026730Y0219799D01*
X0026815Y0219569D01*
X0026895Y0219337D01*
X0026969Y0219103D01*
X0027038Y0218867D01*
X0027100Y0218630D01*
X0027157Y0218391D01*
X0027208Y0218151D01*
X0027253Y0217910D01*
X0027292Y0217667D01*
X0027325Y0217424D01*
X0027352Y0217180D01*
X0027373Y0216936D01*
X0027388Y0216691D01*
X0027397Y0216445D01*
X0027400Y0216200D01*
X0027397Y0215955D01*
X0027388Y0215709D01*
X0027373Y0215464D01*
X0027352Y0215220D01*
X0027325Y0214976D01*
X0027292Y0214733D01*
X0027253Y0214490D01*
X0027208Y0214249D01*
X0027157Y0214009D01*
X0027100Y0213770D01*
X0027038Y0213533D01*
X0026969Y0213297D01*
X0026895Y0213063D01*
X0026815Y0212831D01*
X0026730Y0212601D01*
X0026639Y0212373D01*
X0026542Y0212148D01*
X0026440Y0211924D01*
X0026332Y0211704D01*
X0026219Y0211486D01*
X0026101Y0211271D01*
X0025977Y0211059D01*
X0025849Y0210850D01*
X0025715Y0210644D01*
X0025576Y0210442D01*
X0025432Y0210243D01*
X0025283Y0210048D01*
X0025130Y0209856D01*
X0024972Y0209668D01*
X0024810Y0209484D01*
X0024642Y0209305D01*
X0024471Y0209129D01*
X0024295Y0208958D01*
X0024116Y0208790D01*
X0023932Y0208628D01*
X0023744Y0208470D01*
X0023552Y0208317D01*
X0023357Y0208168D01*
X0023158Y0208024D01*
X0022956Y0207885D01*
X0022750Y0207751D01*
X0022541Y0207623D01*
X0022329Y0207499D01*
X0022114Y0207381D01*
X0021896Y0207268D01*
X0021676Y0207160D01*
X0021452Y0207058D01*
X0021227Y0206961D01*
X0020999Y0206870D01*
X0020769Y0206785D01*
X0020537Y0206705D01*
X0020303Y0206631D01*
X0020067Y0206562D01*
X0019830Y0206500D01*
X0019591Y0206443D01*
X0019351Y0206392D01*
X0019110Y0206347D01*
X0018867Y0206308D01*
X0018624Y0206275D01*
X0018380Y0206248D01*
X0018136Y0206227D01*
X0017891Y0206212D01*
X0017645Y0206203D01*
X0017400Y0206200D01*
X0017155Y0206203D01*
X0016909Y0206212D01*
X0016664Y0206227D01*
X0016420Y0206248D01*
X0016176Y0206275D01*
X0015933Y0206308D01*
X0015690Y0206347D01*
X0015449Y0206392D01*
X0015209Y0206443D01*
X0014970Y0206500D01*
X0014733Y0206562D01*
X0014497Y0206631D01*
X0014263Y0206705D01*
X0014031Y0206785D01*
X0013801Y0206870D01*
X0013573Y0206961D01*
X0013348Y0207058D01*
X0013124Y0207160D01*
X0012904Y0207268D01*
X0012686Y0207381D01*
X0012471Y0207499D01*
X0012259Y0207623D01*
X0012050Y0207751D01*
X0011844Y0207885D01*
X0011642Y0208024D01*
X0011443Y0208168D01*
X0011248Y0208317D01*
X0011056Y0208470D01*
X0010868Y0208628D01*
X0010684Y0208790D01*
X0010505Y0208958D01*
X0010329Y0209129D01*
X0010158Y0209305D01*
X0009990Y0209484D01*
X0009828Y0209668D01*
X0009670Y0209856D01*
X0009517Y0210048D01*
X0009368Y0210243D01*
X0009224Y0210442D01*
X0009085Y0210644D01*
X0008951Y0210850D01*
X0008823Y0211059D01*
X0008699Y0211271D01*
X0008581Y0211486D01*
X0008468Y0211704D01*
X0008360Y0211924D01*
X0008258Y0212148D01*
X0008161Y0212373D01*
X0008070Y0212601D01*
X0007985Y0212831D01*
X0007905Y0213063D01*
X0007831Y0213297D01*
X0007762Y0213533D01*
X0007700Y0213770D01*
X0007643Y0214009D01*
X0007592Y0214249D01*
X0007547Y0214490D01*
X0007508Y0214733D01*
X0007475Y0214976D01*
X0007448Y0215220D01*
X0007427Y0215464D01*
X0007412Y0215709D01*
X0007403Y0215955D01*
X0007400Y0216200D01*
M02*
