G75*
%MOIN*%
%OFA0B0*%
%FSLAX25Y25*%
%IPPOS*%
%LPD*%
%AMOC8*
5,1,8,0,0,1.08239X$1,22.5*
%
%ADD10C,0.20600*%
%ADD11R,0.06506X0.05718*%
%ADD12R,0.05718X0.06506*%
%ADD13C,0.01361*%
%ADD14R,0.02175X0.06309*%
%ADD15R,0.07293X0.09261*%
%ADD16R,0.07293X0.07687*%
%ADD17R,0.05324X0.06309*%
%ADD18R,0.06506X0.04143*%
%ADD19R,0.04537X0.04537*%
%ADD20R,0.06600X0.03600*%
%ADD21R,0.06900X0.05200*%
%ADD22R,0.07200X0.00600*%
%ADD23R,0.02765X0.05324*%
%ADD24R,0.01781X0.04498*%
%ADD25R,0.08474X0.05324*%
%ADD26R,0.03800X0.01700*%
%ADD27R,0.03800X0.01800*%
%ADD28R,0.01700X0.03800*%
%ADD29R,0.01800X0.03800*%
%ADD30R,0.09600X0.09600*%
%ADD31R,0.04143X0.03356*%
%ADD32R,0.03356X0.04143*%
%ADD33C,0.08000*%
%ADD34C,0.07874*%
%ADD35C,0.03937*%
%ADD36C,0.03600*%
D10*
X0017400Y0216200D03*
D11*
X0008300Y0191740D03*
X0008300Y0184260D03*
X0071800Y0189760D03*
X0071800Y0197240D03*
D12*
X0046540Y0146000D03*
X0039060Y0146000D03*
D13*
X0041935Y0108588D02*
X0041935Y0105412D01*
X0038759Y0105412D01*
X0038759Y0108588D01*
X0041935Y0108588D01*
X0041935Y0106772D02*
X0038759Y0106772D01*
X0038759Y0108132D02*
X0041935Y0108132D01*
X0048841Y0108588D02*
X0048841Y0105412D01*
X0045665Y0105412D01*
X0045665Y0108588D01*
X0048841Y0108588D01*
X0048841Y0106772D02*
X0045665Y0106772D01*
X0045665Y0108132D02*
X0048841Y0108132D01*
X0072935Y0108588D02*
X0072935Y0105412D01*
X0069759Y0105412D01*
X0069759Y0108588D01*
X0072935Y0108588D01*
X0072935Y0106772D02*
X0069759Y0106772D01*
X0069759Y0108132D02*
X0072935Y0108132D01*
X0079841Y0108588D02*
X0079841Y0105412D01*
X0076665Y0105412D01*
X0076665Y0108588D01*
X0079841Y0108588D01*
X0079841Y0106772D02*
X0076665Y0106772D01*
X0076665Y0108132D02*
X0079841Y0108132D01*
D14*
X0058918Y0209744D03*
X0056359Y0209744D03*
X0053800Y0209744D03*
X0051241Y0209744D03*
X0048682Y0209744D03*
D15*
X0034509Y0225000D03*
X0073091Y0225000D03*
D16*
X0073091Y0215551D03*
X0034509Y0215551D03*
D17*
X0044548Y0209744D03*
X0063052Y0209744D03*
D18*
X0030446Y0174496D03*
X0030446Y0161504D03*
X0030446Y0150496D03*
X0030446Y0137504D03*
X0011154Y0137504D03*
X0011154Y0150496D03*
X0011154Y0161504D03*
X0011154Y0174496D03*
D19*
X0047800Y0185063D03*
X0047800Y0192937D03*
X0056300Y0192937D03*
X0056300Y0185063D03*
D20*
X0075800Y0135000D03*
X0075800Y0120000D03*
X0097800Y0120000D03*
X0097800Y0135000D03*
X0032800Y0126500D03*
X0032800Y0111500D03*
X0010800Y0111500D03*
X0010800Y0126500D03*
D21*
X0096300Y0196000D03*
X0096300Y0202000D03*
D22*
X0096300Y0199000D03*
D23*
X0090540Y0213882D03*
X0086800Y0213882D03*
X0083060Y0213882D03*
X0083060Y0224118D03*
X0090540Y0224118D03*
D24*
X0057859Y0124689D03*
X0055300Y0124689D03*
X0052741Y0124689D03*
X0052741Y0118350D03*
X0055300Y0118350D03*
X0057859Y0118350D03*
D25*
X0084328Y0092402D03*
X0084328Y0084528D03*
X0084328Y0076654D03*
X0084328Y0068780D03*
X0084328Y0060906D03*
X0084328Y0053031D03*
X0084328Y0045157D03*
X0084328Y0037283D03*
X0025272Y0037283D03*
X0025272Y0045157D03*
X0025272Y0053031D03*
X0025272Y0060906D03*
X0025272Y0068780D03*
X0025272Y0076654D03*
X0025272Y0084528D03*
X0025272Y0092402D03*
D26*
X0024350Y0190079D03*
X0024350Y0199921D03*
X0039250Y0199921D03*
X0039250Y0190079D03*
D27*
X0039250Y0192047D03*
X0039250Y0194016D03*
X0039250Y0195984D03*
X0039250Y0197953D03*
X0024350Y0197953D03*
X0024350Y0195984D03*
X0024350Y0194016D03*
X0024350Y0192047D03*
D28*
X0026879Y0187550D03*
X0026879Y0202450D03*
X0036721Y0202450D03*
X0036721Y0187550D03*
D29*
X0034753Y0187550D03*
X0032784Y0187550D03*
X0030816Y0187550D03*
X0028847Y0187550D03*
X0028847Y0202450D03*
X0030816Y0202450D03*
X0032784Y0202450D03*
X0034753Y0202450D03*
D30*
X0031800Y0195000D03*
D31*
X0041800Y0176559D03*
X0041800Y0171441D03*
X0053800Y0138559D03*
X0053800Y0133441D03*
X0059800Y0134441D03*
X0059800Y0139559D03*
X0065800Y0139059D03*
X0065800Y0133941D03*
X0069300Y0124059D03*
X0069300Y0118941D03*
X0064800Y0107559D03*
X0064800Y0102441D03*
X0058800Y0102441D03*
X0058800Y0107559D03*
X0052800Y0107559D03*
X0052800Y0102441D03*
X0044800Y0118441D03*
X0044800Y0123559D03*
X0039800Y0123559D03*
X0039800Y0118441D03*
X0063300Y0191941D03*
X0063300Y0197059D03*
X0081300Y0196059D03*
X0081300Y0190941D03*
D32*
X0081359Y0205500D03*
X0076241Y0205500D03*
X0045359Y0138000D03*
X0045359Y0132000D03*
X0040241Y0132000D03*
X0040241Y0138000D03*
X0038241Y0162000D03*
X0043359Y0162000D03*
X0084241Y0104000D03*
X0089359Y0104000D03*
D33*
X0008000Y0039000D03*
X0008000Y0049000D03*
X0008000Y0059000D03*
X0008000Y0069000D03*
X0008000Y0079000D03*
X0008000Y0089000D03*
X0008000Y0099000D03*
X0097600Y0099000D03*
X0097600Y0089000D03*
X0097600Y0079000D03*
X0097600Y0069000D03*
X0097600Y0059000D03*
X0097600Y0049000D03*
X0097600Y0039000D03*
X0097600Y0109000D03*
D34*
X0080300Y0145177D03*
X0080300Y0179823D03*
D35*
X0052741Y0172343D03*
X0052741Y0162500D03*
X0052741Y0152657D03*
D36*
X0051800Y0146500D03*
X0047300Y0157500D03*
X0045300Y0152000D03*
X0042800Y0157500D03*
X0039300Y0152500D03*
X0036800Y0158000D03*
X0035800Y0149260D03*
X0027800Y0155500D03*
X0025200Y0161300D03*
X0018300Y0165000D03*
X0014300Y0169500D03*
X0017300Y0181500D03*
X0018800Y0193500D03*
X0018300Y0198000D03*
X0007800Y0203500D03*
X0030800Y0207000D03*
X0031800Y0197000D03*
X0035900Y0206800D03*
X0039800Y0206000D03*
X0045300Y0204000D03*
X0048300Y0201000D03*
X0052000Y0193000D03*
X0046800Y0178000D03*
X0044500Y0166800D03*
X0038300Y0167500D03*
X0035800Y0173000D03*
X0035800Y0178500D03*
X0033300Y0168500D03*
X0026800Y0146000D03*
X0024300Y0117500D03*
X0020800Y0111600D03*
X0019300Y0103500D03*
X0016800Y0107500D03*
X0010300Y0119500D03*
X0024800Y0099000D03*
X0031800Y0084500D03*
X0032800Y0073000D03*
X0035800Y0070000D03*
X0031300Y0046000D03*
X0017800Y0043500D03*
X0013300Y0044000D03*
X0013500Y0065200D03*
X0015300Y0074000D03*
X0035800Y0104000D03*
X0040300Y0102000D03*
X0043800Y0098500D03*
X0050800Y0098800D03*
X0042000Y0114900D03*
X0045500Y0127700D03*
X0052300Y0129500D03*
X0059800Y0130500D03*
X0062300Y0126500D03*
X0064800Y0129500D03*
X0063000Y0121400D03*
X0068300Y0114000D03*
X0074300Y0102000D03*
X0078300Y0099000D03*
X0087300Y0115000D03*
X0093800Y0116500D03*
X0097800Y0124500D03*
X0098800Y0129500D03*
X0087300Y0131500D03*
X0084300Y0128500D03*
X0084300Y0134500D03*
X0074800Y0125000D03*
X0073500Y0131200D03*
X0070300Y0140000D03*
X0064400Y0162700D03*
X0069800Y0185000D03*
X0076900Y0192000D03*
X0078300Y0200500D03*
X0083300Y0219500D03*
X0078800Y0223500D03*
X0092300Y0184500D03*
X0084300Y0163000D03*
X0061300Y0186000D03*
X0043600Y0193000D03*
X0064800Y0095500D03*
X0078300Y0045000D03*
X0075300Y0042000D03*
X0061800Y0037500D03*
X0091300Y0065000D03*
X0096800Y0213500D03*
M02*
