G75*
%MOIN*%
%OFA0B0*%
%FSLAX25Y25*%
%IPPOS*%
%LPD*%
%AMOC8*
5,1,8,0,0,1.08239X$1,22.5*
%
%ADD10C,0.00600*%
%ADD11C,0.00800*%
%ADD12C,0.00500*%
%ADD13C,0.00300*%
D10*
X0011097Y0008973D02*
X0012231Y0010108D01*
X0011097Y0011242D01*
X0014500Y0011242D01*
X0014500Y0012657D02*
X0011097Y0012657D01*
X0011097Y0014925D02*
X0014500Y0014925D01*
X0013933Y0016340D02*
X0013366Y0016907D01*
X0013366Y0018608D01*
X0012799Y0018608D02*
X0014500Y0018608D01*
X0014500Y0016907D01*
X0013933Y0016340D01*
X0012799Y0014925D02*
X0012799Y0012657D01*
X0014500Y0008973D02*
X0011097Y0008973D01*
X0012231Y0016907D02*
X0012231Y0018041D01*
X0012799Y0018608D01*
X0012799Y0020023D02*
X0012231Y0020590D01*
X0012231Y0022291D01*
X0011097Y0023706D02*
X0014500Y0023706D01*
X0013366Y0023706D02*
X0014500Y0025407D01*
X0014500Y0026775D02*
X0014500Y0028477D01*
X0013933Y0029044D01*
X0013366Y0028477D01*
X0013366Y0027342D01*
X0012799Y0026775D01*
X0012231Y0027342D01*
X0012231Y0029044D01*
X0012231Y0030458D02*
X0012799Y0030458D01*
X0012799Y0031026D01*
X0012231Y0031026D01*
X0012231Y0030458D01*
X0013933Y0030458D02*
X0014500Y0030458D01*
X0014500Y0031026D01*
X0013933Y0031026D01*
X0013933Y0030458D01*
X0017511Y0030365D02*
X0017511Y0030932D01*
X0017511Y0030365D02*
X0018646Y0029231D01*
X0019780Y0029231D02*
X0017511Y0029231D01*
X0018079Y0027816D02*
X0017511Y0027249D01*
X0017511Y0026115D01*
X0018079Y0025548D01*
X0019213Y0025548D01*
X0019780Y0026115D01*
X0019780Y0027249D01*
X0019213Y0027816D01*
X0018079Y0027816D01*
X0017511Y0024226D02*
X0017511Y0023092D01*
X0016944Y0023659D02*
X0019213Y0023659D01*
X0019780Y0024226D01*
X0019780Y0021678D02*
X0019780Y0019976D01*
X0019213Y0019409D01*
X0018079Y0019409D01*
X0017511Y0019976D01*
X0017511Y0021678D01*
X0018079Y0017994D02*
X0017511Y0017427D01*
X0017511Y0016293D01*
X0018646Y0016293D02*
X0018646Y0017994D01*
X0018079Y0017994D02*
X0019780Y0017994D01*
X0019780Y0016293D01*
X0019213Y0015726D01*
X0018646Y0016293D01*
X0018079Y0014405D02*
X0018079Y0013270D01*
X0016944Y0013838D02*
X0016377Y0014405D01*
X0016944Y0013838D02*
X0019780Y0013838D01*
X0018646Y0011856D02*
X0018646Y0009587D01*
X0019213Y0009587D02*
X0018079Y0009587D01*
X0017511Y0010154D01*
X0017511Y0011289D01*
X0018079Y0011856D01*
X0018646Y0011856D01*
X0019780Y0011289D02*
X0019780Y0010154D01*
X0019213Y0009587D01*
X0019780Y0008173D02*
X0018646Y0007038D01*
X0018646Y0007606D02*
X0018646Y0005904D01*
X0019780Y0005904D02*
X0016377Y0005904D01*
X0016377Y0007606D01*
X0016944Y0008173D01*
X0018079Y0008173D01*
X0018646Y0007606D01*
X0013933Y0020023D02*
X0012799Y0020023D01*
X0013933Y0020023D02*
X0014500Y0020590D01*
X0014500Y0022291D01*
X0013366Y0023706D02*
X0012231Y0025407D01*
X0040147Y0023059D02*
X0040147Y0020123D01*
X0040147Y0022325D02*
X0043083Y0022325D01*
X0043083Y0023059D02*
X0043083Y0020123D01*
X0043083Y0023059D02*
X0041615Y0024527D01*
X0040147Y0023059D01*
X0044751Y0023059D02*
X0044751Y0020123D01*
X0044751Y0023059D02*
X0046953Y0023059D01*
X0047687Y0022325D01*
X0047687Y0020123D01*
X0049355Y0023059D02*
X0050823Y0023059D01*
X0050089Y0023793D02*
X0050089Y0020857D01*
X0050823Y0020123D01*
X0052424Y0020857D02*
X0052424Y0022325D01*
X0053158Y0023059D01*
X0054626Y0023059D01*
X0055360Y0022325D01*
X0055360Y0021591D01*
X0052424Y0021591D01*
X0052424Y0020857D02*
X0053158Y0020123D01*
X0054626Y0020123D01*
X0057028Y0020123D02*
X0057028Y0023059D01*
X0059230Y0023059D01*
X0059964Y0022325D01*
X0059964Y0020123D01*
X0061632Y0020123D02*
X0061632Y0023059D01*
X0063834Y0023059D01*
X0064568Y0022325D01*
X0064568Y0020123D01*
X0066236Y0020857D02*
X0066970Y0021591D01*
X0069172Y0021591D01*
X0069172Y0022325D02*
X0069172Y0020123D01*
X0066970Y0020123D01*
X0066236Y0020857D01*
X0066970Y0023059D02*
X0068438Y0023059D01*
X0069172Y0022325D01*
X0087537Y0022100D02*
X0088104Y0021533D01*
X0087537Y0022100D02*
X0087537Y0023234D01*
X0088104Y0023801D01*
X0088671Y0023801D01*
X0090940Y0021533D01*
X0090940Y0023801D01*
X0090373Y0025216D02*
X0090940Y0025783D01*
X0090940Y0026917D01*
X0090373Y0027484D01*
X0089806Y0027484D01*
X0089239Y0026917D01*
X0089239Y0025216D01*
X0090373Y0025216D01*
X0089239Y0025216D02*
X0088104Y0026350D01*
X0087537Y0027484D01*
X0089239Y0028899D02*
X0088104Y0030033D01*
X0087537Y0031167D01*
X0089239Y0030600D02*
X0089239Y0028899D01*
X0090373Y0028899D01*
X0090940Y0029466D01*
X0090940Y0030600D01*
X0090373Y0031167D01*
X0089806Y0031167D01*
X0089239Y0030600D01*
X0092817Y0022760D02*
X0096220Y0022760D01*
X0095086Y0022760D02*
X0096220Y0024462D01*
X0095653Y0025830D02*
X0094519Y0025830D01*
X0093951Y0026397D01*
X0093951Y0027531D01*
X0094519Y0028098D01*
X0095086Y0028098D01*
X0095086Y0025830D01*
X0095653Y0025830D02*
X0096220Y0026397D01*
X0096220Y0027531D01*
X0096220Y0029513D02*
X0093951Y0029513D01*
X0093951Y0030647D02*
X0093951Y0031214D01*
X0093951Y0030647D02*
X0095086Y0029513D01*
X0093951Y0024462D02*
X0095086Y0022760D01*
X0096220Y0021346D02*
X0096220Y0019644D01*
X0095653Y0019077D01*
X0094519Y0019077D01*
X0093951Y0019644D01*
X0093951Y0021346D01*
X0094519Y0017663D02*
X0096220Y0017663D01*
X0096220Y0015961D01*
X0095653Y0015394D01*
X0095086Y0015961D01*
X0095086Y0017663D01*
X0094519Y0017663D02*
X0093951Y0017095D01*
X0093951Y0015961D01*
X0094519Y0013979D02*
X0094519Y0011711D01*
X0096220Y0011711D02*
X0092817Y0011711D01*
X0092817Y0013979D02*
X0096220Y0013979D01*
X0098097Y0014780D02*
X0098097Y0016482D01*
X0098664Y0017049D01*
X0099231Y0017049D01*
X0099799Y0016482D01*
X0099799Y0014780D01*
X0101500Y0014780D02*
X0098097Y0014780D01*
X0099799Y0016482D02*
X0100366Y0017049D01*
X0100933Y0017049D01*
X0101500Y0016482D01*
X0101500Y0014780D01*
X0100933Y0018463D02*
X0101500Y0019030D01*
X0101500Y0020165D01*
X0100933Y0020732D01*
X0099799Y0020732D01*
X0099231Y0020165D01*
X0099231Y0019030D01*
X0099799Y0018463D01*
X0100933Y0018463D01*
X0100933Y0022146D02*
X0100366Y0022714D01*
X0100366Y0024415D01*
X0099799Y0024415D02*
X0101500Y0024415D01*
X0101500Y0022714D01*
X0100933Y0022146D01*
X0099231Y0022714D02*
X0099231Y0023848D01*
X0099799Y0024415D01*
X0100366Y0025830D02*
X0099231Y0026964D01*
X0099231Y0027531D01*
X0099799Y0028899D02*
X0099231Y0029466D01*
X0099231Y0031167D01*
X0098097Y0031167D02*
X0101500Y0031167D01*
X0101500Y0029466D01*
X0100933Y0028899D01*
X0099799Y0028899D01*
X0099231Y0025830D02*
X0101500Y0025830D01*
X0090940Y0019551D02*
X0090940Y0018417D01*
X0090373Y0017849D01*
X0089806Y0017849D01*
X0089239Y0018417D01*
X0089239Y0019551D01*
X0089806Y0020118D01*
X0090373Y0020118D01*
X0090940Y0019551D01*
X0089239Y0019551D02*
X0088671Y0020118D01*
X0088104Y0020118D01*
X0087537Y0019551D01*
X0087537Y0018417D01*
X0088104Y0017849D01*
X0088671Y0017849D01*
X0089239Y0018417D01*
X0089239Y0016435D02*
X0089806Y0015868D01*
X0089806Y0014166D01*
X0090940Y0014166D02*
X0087537Y0014166D01*
X0087537Y0015868D01*
X0088104Y0016435D01*
X0089239Y0016435D01*
X0089806Y0012752D02*
X0089239Y0012185D01*
X0089239Y0011050D01*
X0088671Y0010483D01*
X0088104Y0010483D01*
X0087537Y0011050D01*
X0087537Y0012185D01*
X0088104Y0012752D01*
X0089806Y0012752D02*
X0090373Y0012752D01*
X0090940Y0012185D01*
X0090940Y0011050D01*
X0090373Y0010483D01*
X0090940Y0009069D02*
X0090940Y0006800D01*
X0087537Y0006800D01*
X0087537Y0009069D01*
X0089239Y0007934D02*
X0089239Y0006800D01*
X0087471Y0109800D02*
X0086270Y0111001D01*
X0086871Y0111001D02*
X0085069Y0111001D01*
X0085069Y0109800D02*
X0085069Y0113403D01*
X0086871Y0113403D01*
X0087471Y0112803D01*
X0087471Y0111602D01*
X0086871Y0111001D01*
X0083604Y0109800D02*
X0081202Y0109800D01*
X0081202Y0113403D01*
X0083604Y0113403D01*
X0082403Y0111602D02*
X0081202Y0111602D01*
X0079737Y0113403D02*
X0079737Y0109800D01*
X0078536Y0111001D01*
X0077335Y0109800D01*
X0077335Y0113403D01*
X0075869Y0112803D02*
X0075869Y0110401D01*
X0075269Y0109800D01*
X0074068Y0109800D01*
X0073467Y0110401D01*
X0073467Y0112803D01*
X0074068Y0113403D01*
X0075269Y0113403D01*
X0075869Y0112803D01*
X0072002Y0112803D02*
X0072002Y0111602D01*
X0071402Y0111001D01*
X0069600Y0111001D01*
X0069600Y0109800D02*
X0069600Y0113403D01*
X0071402Y0113403D01*
X0072002Y0112803D01*
X0087134Y0138800D02*
X0088201Y0138800D01*
X0088735Y0139334D01*
X0088735Y0140401D01*
X0087668Y0140401D01*
X0088735Y0141469D02*
X0088201Y0142003D01*
X0087134Y0142003D01*
X0086600Y0141469D01*
X0086600Y0139334D01*
X0087134Y0138800D01*
X0090099Y0138800D02*
X0090099Y0142003D01*
X0091700Y0142003D01*
X0092234Y0141469D01*
X0092234Y0140401D01*
X0091700Y0139868D01*
X0090099Y0139868D01*
X0093598Y0138800D02*
X0094666Y0138800D01*
X0094132Y0138800D02*
X0094132Y0142003D01*
X0093598Y0142003D02*
X0094666Y0142003D01*
X0095931Y0141469D02*
X0095931Y0139334D01*
X0096464Y0138800D01*
X0097532Y0138800D01*
X0098066Y0139334D01*
X0098066Y0141469D01*
X0097532Y0142003D01*
X0096464Y0142003D01*
X0095931Y0141469D01*
X0099430Y0141469D02*
X0099430Y0139334D01*
X0101565Y0141469D01*
X0101565Y0139334D01*
X0101031Y0138800D01*
X0099963Y0138800D01*
X0099430Y0139334D01*
X0099430Y0141469D02*
X0099963Y0142003D01*
X0101031Y0142003D01*
X0101565Y0141469D01*
X0098500Y0151023D02*
X0098500Y0152157D01*
X0098500Y0151590D02*
X0095097Y0151590D01*
X0095097Y0151023D02*
X0095097Y0152157D01*
X0095664Y0153478D02*
X0095097Y0154045D01*
X0095097Y0155180D01*
X0095664Y0155747D01*
X0097933Y0155747D01*
X0098500Y0155180D01*
X0098500Y0154045D01*
X0097933Y0153478D01*
X0095664Y0153478D01*
X0095097Y0157161D02*
X0096231Y0158296D01*
X0095097Y0159430D01*
X0098500Y0159430D01*
X0098500Y0160845D02*
X0098500Y0163113D01*
X0096799Y0161979D02*
X0096799Y0160845D01*
X0098500Y0160845D02*
X0095097Y0160845D01*
X0095097Y0163113D01*
X0095097Y0164528D02*
X0095097Y0166796D01*
X0095097Y0165662D02*
X0098500Y0165662D01*
X0098500Y0168211D02*
X0098500Y0170479D01*
X0098500Y0171894D02*
X0095097Y0171894D01*
X0095097Y0173595D01*
X0095664Y0174163D01*
X0096799Y0174163D01*
X0097366Y0173595D01*
X0097366Y0171894D01*
X0097366Y0173028D02*
X0098500Y0174163D01*
X0096799Y0169345D02*
X0096799Y0168211D01*
X0098500Y0168211D02*
X0095097Y0168211D01*
X0095097Y0170479D01*
X0092500Y0169959D02*
X0089097Y0169959D01*
X0089097Y0168825D02*
X0089097Y0171093D01*
X0090799Y0172508D02*
X0090799Y0174776D01*
X0092500Y0167410D02*
X0089097Y0167410D01*
X0089097Y0165142D02*
X0092500Y0167410D01*
X0092500Y0165142D02*
X0089097Y0165142D01*
X0089097Y0163727D02*
X0089097Y0161458D01*
X0092500Y0161458D01*
X0092500Y0163727D01*
X0090799Y0162593D02*
X0090799Y0161458D01*
X0089097Y0160044D02*
X0089097Y0157775D01*
X0089097Y0158910D02*
X0092500Y0158910D01*
X0091933Y0156361D02*
X0089664Y0156361D01*
X0089097Y0155794D01*
X0089097Y0154659D01*
X0089664Y0154092D01*
X0091933Y0154092D01*
X0092500Y0154659D01*
X0092500Y0155794D01*
X0091933Y0156361D01*
X0090799Y0152678D02*
X0089664Y0152678D01*
X0089097Y0152110D01*
X0089097Y0150409D01*
X0092500Y0150409D01*
X0091366Y0150409D02*
X0091366Y0152110D01*
X0090799Y0152678D01*
X0095097Y0157161D02*
X0098500Y0157161D01*
X0091000Y0190092D02*
X0088731Y0190092D01*
X0087597Y0191226D01*
X0088731Y0192361D01*
X0091000Y0192361D01*
X0090433Y0193775D02*
X0088164Y0196044D01*
X0090433Y0196044D01*
X0091000Y0195477D01*
X0091000Y0194342D01*
X0090433Y0193775D01*
X0088164Y0193775D01*
X0087597Y0194342D01*
X0087597Y0195477D01*
X0088164Y0196044D01*
X0089299Y0197458D02*
X0089299Y0199727D01*
X0088731Y0201142D02*
X0088164Y0201142D01*
X0087597Y0201709D01*
X0087597Y0202843D01*
X0088164Y0203410D01*
X0089299Y0202843D02*
X0089866Y0203410D01*
X0090433Y0203410D01*
X0091000Y0202843D01*
X0091000Y0201709D01*
X0090433Y0201142D01*
X0090433Y0204825D02*
X0091000Y0205392D01*
X0091000Y0205959D01*
X0090433Y0206526D01*
X0087597Y0206526D01*
X0087597Y0205959D02*
X0087597Y0207093D01*
X0089299Y0202843D02*
X0089299Y0201709D01*
X0088731Y0201142D01*
X0092300Y0204500D02*
X0092300Y0193500D01*
X0092302Y0193440D01*
X0092307Y0193379D01*
X0092316Y0193320D01*
X0092329Y0193261D01*
X0092345Y0193202D01*
X0092365Y0193145D01*
X0092388Y0193090D01*
X0092415Y0193035D01*
X0092444Y0192983D01*
X0092477Y0192932D01*
X0092513Y0192883D01*
X0092551Y0192837D01*
X0092593Y0192793D01*
X0092637Y0192751D01*
X0092683Y0192713D01*
X0092732Y0192677D01*
X0092783Y0192644D01*
X0092835Y0192615D01*
X0092890Y0192588D01*
X0092945Y0192565D01*
X0093002Y0192545D01*
X0093061Y0192529D01*
X0093120Y0192516D01*
X0093179Y0192507D01*
X0093240Y0192502D01*
X0093300Y0192500D01*
X0099300Y0192500D01*
X0099360Y0192502D01*
X0099421Y0192507D01*
X0099480Y0192516D01*
X0099539Y0192529D01*
X0099598Y0192545D01*
X0099655Y0192565D01*
X0099710Y0192588D01*
X0099765Y0192615D01*
X0099817Y0192644D01*
X0099868Y0192677D01*
X0099917Y0192713D01*
X0099963Y0192751D01*
X0100007Y0192793D01*
X0100049Y0192837D01*
X0100087Y0192883D01*
X0100123Y0192932D01*
X0100156Y0192983D01*
X0100185Y0193035D01*
X0100212Y0193090D01*
X0100235Y0193145D01*
X0100255Y0193202D01*
X0100271Y0193261D01*
X0100284Y0193320D01*
X0100293Y0193379D01*
X0100298Y0193440D01*
X0100300Y0193500D01*
X0100300Y0204500D01*
X0100298Y0204560D01*
X0100293Y0204621D01*
X0100284Y0204680D01*
X0100271Y0204739D01*
X0100255Y0204798D01*
X0100235Y0204855D01*
X0100212Y0204910D01*
X0100185Y0204965D01*
X0100156Y0205017D01*
X0100123Y0205068D01*
X0100087Y0205117D01*
X0100049Y0205163D01*
X0100007Y0205207D01*
X0099963Y0205249D01*
X0099917Y0205287D01*
X0099868Y0205323D01*
X0099817Y0205356D01*
X0099765Y0205385D01*
X0099710Y0205412D01*
X0099655Y0205435D01*
X0099598Y0205455D01*
X0099539Y0205471D01*
X0099480Y0205484D01*
X0099421Y0205493D01*
X0099360Y0205498D01*
X0099300Y0205500D01*
X0093300Y0205500D01*
X0093240Y0205498D01*
X0093179Y0205493D01*
X0093120Y0205484D01*
X0093061Y0205471D01*
X0093002Y0205455D01*
X0092945Y0205435D01*
X0092890Y0205412D01*
X0092835Y0205385D01*
X0092783Y0205356D01*
X0092732Y0205323D01*
X0092683Y0205287D01*
X0092637Y0205249D01*
X0092593Y0205207D01*
X0092551Y0205163D01*
X0092513Y0205117D01*
X0092477Y0205068D01*
X0092444Y0205017D01*
X0092415Y0204965D01*
X0092388Y0204910D01*
X0092365Y0204855D01*
X0092345Y0204798D01*
X0092329Y0204739D01*
X0092316Y0204680D01*
X0092307Y0204621D01*
X0092302Y0204560D01*
X0092300Y0204500D01*
X0092398Y0215811D02*
X0092028Y0215811D01*
X0092398Y0215811D02*
X0092398Y0222189D01*
X0092028Y0222189D01*
X0088855Y0222189D02*
X0084745Y0222189D01*
X0081572Y0222189D02*
X0081202Y0222189D01*
X0081202Y0215811D01*
X0081572Y0215811D01*
X0084745Y0215811D02*
X0085115Y0215811D01*
X0088485Y0215811D02*
X0088855Y0215811D01*
X0089299Y0192361D02*
X0089299Y0190092D01*
X0055082Y0113403D02*
X0053881Y0113403D01*
X0053280Y0112803D01*
X0053280Y0110401D01*
X0055682Y0112803D01*
X0055682Y0110401D01*
X0055082Y0109800D01*
X0053881Y0109800D01*
X0053280Y0110401D01*
X0051815Y0110401D02*
X0051815Y0112803D01*
X0051214Y0113403D01*
X0050013Y0113403D01*
X0049413Y0112803D01*
X0049413Y0110401D01*
X0050013Y0109800D01*
X0051214Y0109800D01*
X0051815Y0110401D01*
X0055082Y0113403D02*
X0055682Y0112803D01*
X0048036Y0113403D02*
X0046835Y0113403D01*
X0047435Y0113403D02*
X0047435Y0109800D01*
X0046835Y0109800D02*
X0048036Y0109800D01*
X0045369Y0111602D02*
X0044769Y0111001D01*
X0042967Y0111001D01*
X0042967Y0109800D02*
X0042967Y0113403D01*
X0044769Y0113403D01*
X0045369Y0112803D01*
X0045369Y0111602D01*
X0041502Y0111602D02*
X0040301Y0111602D01*
X0041502Y0111602D02*
X0041502Y0110401D01*
X0040902Y0109800D01*
X0039701Y0109800D01*
X0039100Y0110401D01*
X0039100Y0112803D01*
X0039701Y0113403D01*
X0040902Y0113403D01*
X0041502Y0112803D01*
X0039600Y0187200D02*
X0024000Y0187200D01*
X0024000Y0202800D01*
X0039600Y0202800D01*
X0039600Y0187200D01*
X0039600Y0189500D02*
X0039600Y0190700D01*
X0039600Y0191400D02*
X0039600Y0192600D01*
X0039600Y0193400D02*
X0039600Y0194600D01*
X0039600Y0195400D02*
X0039600Y0196600D01*
X0039600Y0197400D02*
X0039600Y0198600D01*
X0039600Y0199300D02*
X0039600Y0200500D01*
X0037300Y0202800D02*
X0036100Y0202800D01*
X0035400Y0202800D02*
X0034200Y0202800D01*
X0033400Y0202800D02*
X0032200Y0202800D01*
X0031400Y0202800D02*
X0030200Y0202800D01*
X0029400Y0202800D02*
X0028200Y0202800D01*
X0027500Y0202800D02*
X0026300Y0202800D01*
X0029000Y0202800D02*
X0024000Y0197800D01*
X0024000Y0197400D02*
X0024000Y0198600D01*
X0024000Y0199300D02*
X0024000Y0200500D01*
X0024000Y0196600D02*
X0024000Y0195400D01*
X0024000Y0194600D02*
X0024000Y0193400D01*
X0024000Y0192600D02*
X0024000Y0191400D01*
X0024000Y0190700D02*
X0024000Y0189500D01*
X0026300Y0187200D02*
X0027500Y0187200D01*
X0028200Y0187200D02*
X0029400Y0187200D01*
X0030200Y0187200D02*
X0031400Y0187200D01*
X0032200Y0187200D02*
X0033400Y0187200D01*
X0034200Y0187200D02*
X0035400Y0187200D01*
X0036100Y0187200D02*
X0037300Y0187200D01*
X0007000Y0126863D02*
X0003797Y0126863D01*
X0003797Y0125796D02*
X0003797Y0127931D01*
X0003797Y0124432D02*
X0003797Y0122297D01*
X0007000Y0122297D01*
X0007000Y0124432D01*
X0005399Y0123365D02*
X0005399Y0122297D01*
X0005932Y0120933D02*
X0006466Y0120933D01*
X0007000Y0120399D01*
X0007000Y0119332D01*
X0006466Y0118798D01*
X0005399Y0119332D02*
X0005399Y0120399D01*
X0005932Y0120933D01*
X0004331Y0120933D02*
X0003797Y0120399D01*
X0003797Y0119332D01*
X0004331Y0118798D01*
X0004865Y0118798D01*
X0005399Y0119332D01*
X0007000Y0117434D02*
X0007000Y0115299D01*
X0003797Y0115299D01*
X0003797Y0117434D01*
X0005399Y0116367D02*
X0005399Y0115299D01*
X0005399Y0113935D02*
X0004331Y0113935D01*
X0003797Y0113401D01*
X0003797Y0111800D01*
X0007000Y0111800D01*
X0005932Y0111800D02*
X0005932Y0113401D01*
X0005399Y0113935D01*
X0005932Y0112868D02*
X0007000Y0113935D01*
D11*
X0005500Y0104000D02*
X0003000Y0101500D01*
X0003000Y0096500D01*
X0005500Y0094000D01*
X0003000Y0091500D01*
X0003000Y0086500D01*
X0005500Y0084000D01*
X0003000Y0081500D01*
X0003000Y0076500D01*
X0005500Y0074000D01*
X0003000Y0071500D01*
X0003000Y0066500D01*
X0005500Y0064000D01*
X0003000Y0061500D01*
X0003000Y0056500D01*
X0005500Y0054000D01*
X0003000Y0051500D01*
X0003000Y0046500D01*
X0005500Y0044000D01*
X0003000Y0041500D01*
X0003000Y0036500D01*
X0005500Y0034000D01*
X0010500Y0034000D01*
X0013000Y0036500D01*
X0013000Y0041500D01*
X0010500Y0044000D01*
X0013000Y0046500D01*
X0013000Y0051500D01*
X0010500Y0054000D01*
X0013000Y0056500D01*
X0013000Y0061500D01*
X0010500Y0064000D01*
X0013000Y0066500D01*
X0013000Y0071500D01*
X0010500Y0074000D01*
X0013000Y0076500D01*
X0013000Y0081500D01*
X0010500Y0084000D01*
X0013000Y0086500D01*
X0013000Y0091500D01*
X0010500Y0094000D01*
X0013000Y0096500D01*
X0013000Y0101500D01*
X0010500Y0104000D01*
X0005500Y0104000D01*
X0011800Y0114118D02*
X0011800Y0124000D01*
X0015737Y0129000D02*
X0027863Y0129000D01*
X0031800Y0123882D02*
X0031800Y0114118D01*
X0027863Y0109000D02*
X0015737Y0109000D01*
X0016800Y0119000D02*
X0016802Y0119141D01*
X0016808Y0119282D01*
X0016818Y0119422D01*
X0016832Y0119562D01*
X0016850Y0119702D01*
X0016871Y0119841D01*
X0016897Y0119980D01*
X0016926Y0120118D01*
X0016960Y0120254D01*
X0016997Y0120390D01*
X0017038Y0120525D01*
X0017083Y0120659D01*
X0017132Y0120791D01*
X0017184Y0120922D01*
X0017240Y0121051D01*
X0017300Y0121178D01*
X0017363Y0121304D01*
X0017429Y0121428D01*
X0017500Y0121551D01*
X0017573Y0121671D01*
X0017650Y0121789D01*
X0017730Y0121905D01*
X0017814Y0122018D01*
X0017900Y0122129D01*
X0017990Y0122238D01*
X0018083Y0122344D01*
X0018178Y0122447D01*
X0018277Y0122548D01*
X0018378Y0122646D01*
X0018482Y0122741D01*
X0018589Y0122833D01*
X0018698Y0122922D01*
X0018810Y0123007D01*
X0018924Y0123090D01*
X0019040Y0123170D01*
X0019159Y0123246D01*
X0019280Y0123318D01*
X0019402Y0123388D01*
X0019527Y0123453D01*
X0019653Y0123516D01*
X0019781Y0123574D01*
X0019911Y0123629D01*
X0020042Y0123681D01*
X0020175Y0123728D01*
X0020309Y0123772D01*
X0020444Y0123813D01*
X0020580Y0123849D01*
X0020717Y0123881D01*
X0020855Y0123910D01*
X0020993Y0123935D01*
X0021133Y0123955D01*
X0021273Y0123972D01*
X0021413Y0123985D01*
X0021554Y0123994D01*
X0021694Y0123999D01*
X0021835Y0124000D01*
X0021976Y0123997D01*
X0022117Y0123990D01*
X0022257Y0123979D01*
X0022397Y0123964D01*
X0022537Y0123945D01*
X0022676Y0123923D01*
X0022814Y0123896D01*
X0022952Y0123866D01*
X0023088Y0123831D01*
X0023224Y0123793D01*
X0023358Y0123751D01*
X0023492Y0123705D01*
X0023624Y0123656D01*
X0023754Y0123602D01*
X0023883Y0123545D01*
X0024010Y0123485D01*
X0024136Y0123421D01*
X0024259Y0123353D01*
X0024381Y0123282D01*
X0024501Y0123208D01*
X0024618Y0123130D01*
X0024733Y0123049D01*
X0024846Y0122965D01*
X0024957Y0122878D01*
X0025065Y0122787D01*
X0025170Y0122694D01*
X0025273Y0122597D01*
X0025373Y0122498D01*
X0025470Y0122396D01*
X0025564Y0122291D01*
X0025655Y0122184D01*
X0025743Y0122074D01*
X0025828Y0121962D01*
X0025910Y0121847D01*
X0025989Y0121730D01*
X0026064Y0121611D01*
X0026136Y0121490D01*
X0026204Y0121367D01*
X0026269Y0121242D01*
X0026331Y0121115D01*
X0026388Y0120986D01*
X0026443Y0120856D01*
X0026493Y0120725D01*
X0026540Y0120592D01*
X0026583Y0120458D01*
X0026622Y0120322D01*
X0026657Y0120186D01*
X0026689Y0120049D01*
X0026716Y0119911D01*
X0026740Y0119772D01*
X0026760Y0119632D01*
X0026776Y0119492D01*
X0026788Y0119352D01*
X0026796Y0119211D01*
X0026800Y0119070D01*
X0026800Y0118930D01*
X0026796Y0118789D01*
X0026788Y0118648D01*
X0026776Y0118508D01*
X0026760Y0118368D01*
X0026740Y0118228D01*
X0026716Y0118089D01*
X0026689Y0117951D01*
X0026657Y0117814D01*
X0026622Y0117678D01*
X0026583Y0117542D01*
X0026540Y0117408D01*
X0026493Y0117275D01*
X0026443Y0117144D01*
X0026388Y0117014D01*
X0026331Y0116885D01*
X0026269Y0116758D01*
X0026204Y0116633D01*
X0026136Y0116510D01*
X0026064Y0116389D01*
X0025989Y0116270D01*
X0025910Y0116153D01*
X0025828Y0116038D01*
X0025743Y0115926D01*
X0025655Y0115816D01*
X0025564Y0115709D01*
X0025470Y0115604D01*
X0025373Y0115502D01*
X0025273Y0115403D01*
X0025170Y0115306D01*
X0025065Y0115213D01*
X0024957Y0115122D01*
X0024846Y0115035D01*
X0024733Y0114951D01*
X0024618Y0114870D01*
X0024501Y0114792D01*
X0024381Y0114718D01*
X0024259Y0114647D01*
X0024136Y0114579D01*
X0024010Y0114515D01*
X0023883Y0114455D01*
X0023754Y0114398D01*
X0023624Y0114344D01*
X0023492Y0114295D01*
X0023358Y0114249D01*
X0023224Y0114207D01*
X0023088Y0114169D01*
X0022952Y0114134D01*
X0022814Y0114104D01*
X0022676Y0114077D01*
X0022537Y0114055D01*
X0022397Y0114036D01*
X0022257Y0114021D01*
X0022117Y0114010D01*
X0021976Y0114003D01*
X0021835Y0114000D01*
X0021694Y0114001D01*
X0021554Y0114006D01*
X0021413Y0114015D01*
X0021273Y0114028D01*
X0021133Y0114045D01*
X0020993Y0114065D01*
X0020855Y0114090D01*
X0020717Y0114119D01*
X0020580Y0114151D01*
X0020444Y0114187D01*
X0020309Y0114228D01*
X0020175Y0114272D01*
X0020042Y0114319D01*
X0019911Y0114371D01*
X0019781Y0114426D01*
X0019653Y0114484D01*
X0019527Y0114547D01*
X0019402Y0114612D01*
X0019280Y0114682D01*
X0019159Y0114754D01*
X0019040Y0114830D01*
X0018924Y0114910D01*
X0018810Y0114993D01*
X0018698Y0115078D01*
X0018589Y0115167D01*
X0018482Y0115259D01*
X0018378Y0115354D01*
X0018277Y0115452D01*
X0018178Y0115553D01*
X0018083Y0115656D01*
X0017990Y0115762D01*
X0017900Y0115871D01*
X0017814Y0115982D01*
X0017730Y0116095D01*
X0017650Y0116211D01*
X0017573Y0116329D01*
X0017500Y0116449D01*
X0017429Y0116572D01*
X0017363Y0116696D01*
X0017300Y0116822D01*
X0017240Y0116949D01*
X0017184Y0117078D01*
X0017132Y0117209D01*
X0017083Y0117341D01*
X0017038Y0117475D01*
X0016997Y0117610D01*
X0016960Y0117746D01*
X0016926Y0117882D01*
X0016897Y0118020D01*
X0016871Y0118159D01*
X0016850Y0118298D01*
X0016832Y0118438D01*
X0016818Y0118578D01*
X0016808Y0118718D01*
X0016802Y0118859D01*
X0016800Y0119000D01*
X0043131Y0108811D02*
X0043131Y0107000D01*
X0044351Y0107920D01*
X0043131Y0107000D02*
X0043131Y0105189D01*
X0044351Y0106140D02*
X0043191Y0106900D01*
X0048444Y0118744D02*
X0048446Y0118791D01*
X0048452Y0118837D01*
X0048461Y0118883D01*
X0048475Y0118927D01*
X0048492Y0118971D01*
X0048513Y0119012D01*
X0048537Y0119052D01*
X0048564Y0119090D01*
X0048595Y0119125D01*
X0048628Y0119158D01*
X0048664Y0119188D01*
X0048703Y0119214D01*
X0048743Y0119238D01*
X0048785Y0119257D01*
X0048829Y0119274D01*
X0048874Y0119286D01*
X0048920Y0119295D01*
X0048966Y0119300D01*
X0049013Y0119301D01*
X0049059Y0119298D01*
X0049105Y0119291D01*
X0049151Y0119280D01*
X0049195Y0119266D01*
X0049238Y0119248D01*
X0049279Y0119226D01*
X0049319Y0119201D01*
X0049356Y0119173D01*
X0049391Y0119142D01*
X0049423Y0119108D01*
X0049452Y0119071D01*
X0049477Y0119033D01*
X0049500Y0118992D01*
X0049519Y0118949D01*
X0049534Y0118905D01*
X0049546Y0118860D01*
X0049554Y0118814D01*
X0049558Y0118767D01*
X0049558Y0118721D01*
X0049554Y0118674D01*
X0049546Y0118628D01*
X0049534Y0118583D01*
X0049519Y0118539D01*
X0049500Y0118496D01*
X0049477Y0118455D01*
X0049452Y0118417D01*
X0049423Y0118380D01*
X0049391Y0118346D01*
X0049356Y0118315D01*
X0049319Y0118287D01*
X0049280Y0118262D01*
X0049238Y0118240D01*
X0049195Y0118222D01*
X0049151Y0118208D01*
X0049105Y0118197D01*
X0049059Y0118190D01*
X0049013Y0118187D01*
X0048966Y0118188D01*
X0048920Y0118193D01*
X0048874Y0118202D01*
X0048829Y0118214D01*
X0048785Y0118231D01*
X0048743Y0118250D01*
X0048703Y0118274D01*
X0048664Y0118300D01*
X0048628Y0118330D01*
X0048595Y0118363D01*
X0048564Y0118398D01*
X0048537Y0118436D01*
X0048513Y0118476D01*
X0048492Y0118517D01*
X0048475Y0118561D01*
X0048461Y0118605D01*
X0048452Y0118651D01*
X0048446Y0118697D01*
X0048444Y0118744D01*
X0050576Y0118350D02*
X0050576Y0124650D01*
X0053804Y0143091D02*
X0053804Y0181909D01*
X0074198Y0181909D01*
X0086402Y0181909D02*
X0101347Y0181909D01*
X0101347Y0143091D01*
X0086402Y0143091D01*
X0080737Y0137500D02*
X0092863Y0137500D01*
X0096800Y0132382D02*
X0096800Y0122618D01*
X0092863Y0117500D02*
X0080737Y0117500D01*
X0076800Y0122618D02*
X0076800Y0132500D01*
X0074198Y0143091D02*
X0053804Y0143091D01*
X0060024Y0124650D02*
X0060024Y0118350D01*
X0074131Y0108811D02*
X0074131Y0107000D01*
X0075351Y0107920D01*
X0074131Y0107000D02*
X0074131Y0105189D01*
X0075351Y0106140D02*
X0074191Y0106900D01*
X0081800Y0127500D02*
X0081802Y0127641D01*
X0081808Y0127782D01*
X0081818Y0127922D01*
X0081832Y0128062D01*
X0081850Y0128202D01*
X0081871Y0128341D01*
X0081897Y0128480D01*
X0081926Y0128618D01*
X0081960Y0128754D01*
X0081997Y0128890D01*
X0082038Y0129025D01*
X0082083Y0129159D01*
X0082132Y0129291D01*
X0082184Y0129422D01*
X0082240Y0129551D01*
X0082300Y0129678D01*
X0082363Y0129804D01*
X0082429Y0129928D01*
X0082500Y0130051D01*
X0082573Y0130171D01*
X0082650Y0130289D01*
X0082730Y0130405D01*
X0082814Y0130518D01*
X0082900Y0130629D01*
X0082990Y0130738D01*
X0083083Y0130844D01*
X0083178Y0130947D01*
X0083277Y0131048D01*
X0083378Y0131146D01*
X0083482Y0131241D01*
X0083589Y0131333D01*
X0083698Y0131422D01*
X0083810Y0131507D01*
X0083924Y0131590D01*
X0084040Y0131670D01*
X0084159Y0131746D01*
X0084280Y0131818D01*
X0084402Y0131888D01*
X0084527Y0131953D01*
X0084653Y0132016D01*
X0084781Y0132074D01*
X0084911Y0132129D01*
X0085042Y0132181D01*
X0085175Y0132228D01*
X0085309Y0132272D01*
X0085444Y0132313D01*
X0085580Y0132349D01*
X0085717Y0132381D01*
X0085855Y0132410D01*
X0085993Y0132435D01*
X0086133Y0132455D01*
X0086273Y0132472D01*
X0086413Y0132485D01*
X0086554Y0132494D01*
X0086694Y0132499D01*
X0086835Y0132500D01*
X0086976Y0132497D01*
X0087117Y0132490D01*
X0087257Y0132479D01*
X0087397Y0132464D01*
X0087537Y0132445D01*
X0087676Y0132423D01*
X0087814Y0132396D01*
X0087952Y0132366D01*
X0088088Y0132331D01*
X0088224Y0132293D01*
X0088358Y0132251D01*
X0088492Y0132205D01*
X0088624Y0132156D01*
X0088754Y0132102D01*
X0088883Y0132045D01*
X0089010Y0131985D01*
X0089136Y0131921D01*
X0089259Y0131853D01*
X0089381Y0131782D01*
X0089501Y0131708D01*
X0089618Y0131630D01*
X0089733Y0131549D01*
X0089846Y0131465D01*
X0089957Y0131378D01*
X0090065Y0131287D01*
X0090170Y0131194D01*
X0090273Y0131097D01*
X0090373Y0130998D01*
X0090470Y0130896D01*
X0090564Y0130791D01*
X0090655Y0130684D01*
X0090743Y0130574D01*
X0090828Y0130462D01*
X0090910Y0130347D01*
X0090989Y0130230D01*
X0091064Y0130111D01*
X0091136Y0129990D01*
X0091204Y0129867D01*
X0091269Y0129742D01*
X0091331Y0129615D01*
X0091388Y0129486D01*
X0091443Y0129356D01*
X0091493Y0129225D01*
X0091540Y0129092D01*
X0091583Y0128958D01*
X0091622Y0128822D01*
X0091657Y0128686D01*
X0091689Y0128549D01*
X0091716Y0128411D01*
X0091740Y0128272D01*
X0091760Y0128132D01*
X0091776Y0127992D01*
X0091788Y0127852D01*
X0091796Y0127711D01*
X0091800Y0127570D01*
X0091800Y0127430D01*
X0091796Y0127289D01*
X0091788Y0127148D01*
X0091776Y0127008D01*
X0091760Y0126868D01*
X0091740Y0126728D01*
X0091716Y0126589D01*
X0091689Y0126451D01*
X0091657Y0126314D01*
X0091622Y0126178D01*
X0091583Y0126042D01*
X0091540Y0125908D01*
X0091493Y0125775D01*
X0091443Y0125644D01*
X0091388Y0125514D01*
X0091331Y0125385D01*
X0091269Y0125258D01*
X0091204Y0125133D01*
X0091136Y0125010D01*
X0091064Y0124889D01*
X0090989Y0124770D01*
X0090910Y0124653D01*
X0090828Y0124538D01*
X0090743Y0124426D01*
X0090655Y0124316D01*
X0090564Y0124209D01*
X0090470Y0124104D01*
X0090373Y0124002D01*
X0090273Y0123903D01*
X0090170Y0123806D01*
X0090065Y0123713D01*
X0089957Y0123622D01*
X0089846Y0123535D01*
X0089733Y0123451D01*
X0089618Y0123370D01*
X0089501Y0123292D01*
X0089381Y0123218D01*
X0089259Y0123147D01*
X0089136Y0123079D01*
X0089010Y0123015D01*
X0088883Y0122955D01*
X0088754Y0122898D01*
X0088624Y0122844D01*
X0088492Y0122795D01*
X0088358Y0122749D01*
X0088224Y0122707D01*
X0088088Y0122669D01*
X0087952Y0122634D01*
X0087814Y0122604D01*
X0087676Y0122577D01*
X0087537Y0122555D01*
X0087397Y0122536D01*
X0087257Y0122521D01*
X0087117Y0122510D01*
X0086976Y0122503D01*
X0086835Y0122500D01*
X0086694Y0122501D01*
X0086554Y0122506D01*
X0086413Y0122515D01*
X0086273Y0122528D01*
X0086133Y0122545D01*
X0085993Y0122565D01*
X0085855Y0122590D01*
X0085717Y0122619D01*
X0085580Y0122651D01*
X0085444Y0122687D01*
X0085309Y0122728D01*
X0085175Y0122772D01*
X0085042Y0122819D01*
X0084911Y0122871D01*
X0084781Y0122926D01*
X0084653Y0122984D01*
X0084527Y0123047D01*
X0084402Y0123112D01*
X0084280Y0123182D01*
X0084159Y0123254D01*
X0084040Y0123330D01*
X0083924Y0123410D01*
X0083810Y0123493D01*
X0083698Y0123578D01*
X0083589Y0123667D01*
X0083482Y0123759D01*
X0083378Y0123854D01*
X0083277Y0123952D01*
X0083178Y0124053D01*
X0083083Y0124156D01*
X0082990Y0124262D01*
X0082900Y0124371D01*
X0082814Y0124482D01*
X0082730Y0124595D01*
X0082650Y0124711D01*
X0082573Y0124829D01*
X0082500Y0124949D01*
X0082429Y0125072D01*
X0082363Y0125196D01*
X0082300Y0125322D01*
X0082240Y0125449D01*
X0082184Y0125578D01*
X0082132Y0125709D01*
X0082083Y0125841D01*
X0082038Y0125975D01*
X0081997Y0126110D01*
X0081960Y0126246D01*
X0081926Y0126382D01*
X0081897Y0126520D01*
X0081871Y0126659D01*
X0081850Y0126798D01*
X0081832Y0126938D01*
X0081818Y0127078D01*
X0081808Y0127218D01*
X0081802Y0127359D01*
X0081800Y0127500D01*
X0095100Y0114000D02*
X0092600Y0111500D01*
X0092600Y0106500D01*
X0095100Y0104000D01*
X0092600Y0101500D01*
X0092600Y0096500D01*
X0095100Y0094000D01*
X0092600Y0091500D01*
X0092600Y0086500D01*
X0095100Y0084000D01*
X0092600Y0081500D01*
X0092600Y0076500D01*
X0095100Y0074000D01*
X0092600Y0071500D01*
X0092600Y0066500D01*
X0095100Y0064000D01*
X0092600Y0061500D01*
X0092600Y0056500D01*
X0095100Y0054000D01*
X0092600Y0051500D01*
X0092600Y0046500D01*
X0095100Y0044000D01*
X0092600Y0041500D01*
X0092600Y0036500D01*
X0095100Y0034000D01*
X0100100Y0034000D01*
X0102600Y0036500D01*
X0102600Y0041500D01*
X0100100Y0044000D01*
X0102600Y0046500D01*
X0102600Y0051500D01*
X0100100Y0054000D01*
X0102600Y0056500D01*
X0102600Y0061500D01*
X0100100Y0064000D01*
X0102600Y0066500D01*
X0102600Y0071500D01*
X0100100Y0074000D01*
X0102600Y0076500D01*
X0102600Y0081500D01*
X0100100Y0084000D01*
X0102600Y0086500D01*
X0102600Y0091500D01*
X0100100Y0094000D01*
X0102600Y0096500D01*
X0102600Y0101500D01*
X0100100Y0104000D01*
X0102600Y0106500D01*
X0102600Y0111500D01*
X0100100Y0114000D01*
X0095100Y0114000D01*
D12*
X0086296Y0098307D02*
X0086296Y0003819D01*
X0023304Y0003819D01*
X0023304Y0098307D01*
X0086296Y0098307D01*
X0078422Y0093583D02*
X0078422Y0034528D01*
X0031178Y0034528D01*
X0031178Y0093583D01*
X0078422Y0093583D01*
X0049394Y0118350D02*
X0049394Y0118744D01*
X0049001Y0118744D01*
X0030643Y0134157D02*
X0030643Y0153843D01*
X0014501Y0153843D01*
X0015682Y0155024D01*
X0014107Y0156598D01*
X0010957Y0153843D01*
X0014501Y0153843D01*
X0010957Y0150299D01*
X0010957Y0153843D01*
X0010957Y0150299D02*
X0010957Y0134157D01*
X0030643Y0134157D01*
X0014027Y0144000D02*
X0014029Y0144166D01*
X0014035Y0144332D01*
X0014045Y0144498D01*
X0014060Y0144664D01*
X0014078Y0144829D01*
X0014100Y0144994D01*
X0014127Y0145158D01*
X0014157Y0145321D01*
X0014192Y0145484D01*
X0014230Y0145646D01*
X0014272Y0145806D01*
X0014319Y0145966D01*
X0014369Y0146125D01*
X0014423Y0146282D01*
X0014481Y0146438D01*
X0014543Y0146592D01*
X0014608Y0146745D01*
X0014677Y0146896D01*
X0014750Y0147045D01*
X0014827Y0147193D01*
X0014907Y0147338D01*
X0014991Y0147482D01*
X0015078Y0147624D01*
X0015168Y0147763D01*
X0015262Y0147900D01*
X0015360Y0148035D01*
X0015461Y0148167D01*
X0015564Y0148297D01*
X0015671Y0148424D01*
X0015782Y0148548D01*
X0015895Y0148670D01*
X0016011Y0148789D01*
X0016130Y0148905D01*
X0016252Y0149018D01*
X0016376Y0149129D01*
X0016503Y0149236D01*
X0016633Y0149339D01*
X0016765Y0149440D01*
X0016900Y0149538D01*
X0017037Y0149632D01*
X0017176Y0149722D01*
X0017318Y0149809D01*
X0017462Y0149893D01*
X0017607Y0149973D01*
X0017755Y0150050D01*
X0017904Y0150123D01*
X0018055Y0150192D01*
X0018208Y0150257D01*
X0018362Y0150319D01*
X0018518Y0150377D01*
X0018675Y0150431D01*
X0018834Y0150481D01*
X0018994Y0150528D01*
X0019154Y0150570D01*
X0019316Y0150608D01*
X0019479Y0150643D01*
X0019642Y0150673D01*
X0019806Y0150700D01*
X0019971Y0150722D01*
X0020136Y0150740D01*
X0020302Y0150755D01*
X0020468Y0150765D01*
X0020634Y0150771D01*
X0020800Y0150773D01*
X0020966Y0150771D01*
X0021132Y0150765D01*
X0021298Y0150755D01*
X0021464Y0150740D01*
X0021629Y0150722D01*
X0021794Y0150700D01*
X0021958Y0150673D01*
X0022121Y0150643D01*
X0022284Y0150608D01*
X0022446Y0150570D01*
X0022606Y0150528D01*
X0022766Y0150481D01*
X0022925Y0150431D01*
X0023082Y0150377D01*
X0023238Y0150319D01*
X0023392Y0150257D01*
X0023545Y0150192D01*
X0023696Y0150123D01*
X0023845Y0150050D01*
X0023993Y0149973D01*
X0024138Y0149893D01*
X0024282Y0149809D01*
X0024424Y0149722D01*
X0024563Y0149632D01*
X0024700Y0149538D01*
X0024835Y0149440D01*
X0024967Y0149339D01*
X0025097Y0149236D01*
X0025224Y0149129D01*
X0025348Y0149018D01*
X0025470Y0148905D01*
X0025589Y0148789D01*
X0025705Y0148670D01*
X0025818Y0148548D01*
X0025929Y0148424D01*
X0026036Y0148297D01*
X0026139Y0148167D01*
X0026240Y0148035D01*
X0026338Y0147900D01*
X0026432Y0147763D01*
X0026522Y0147624D01*
X0026609Y0147482D01*
X0026693Y0147338D01*
X0026773Y0147193D01*
X0026850Y0147045D01*
X0026923Y0146896D01*
X0026992Y0146745D01*
X0027057Y0146592D01*
X0027119Y0146438D01*
X0027177Y0146282D01*
X0027231Y0146125D01*
X0027281Y0145966D01*
X0027328Y0145806D01*
X0027370Y0145646D01*
X0027408Y0145484D01*
X0027443Y0145321D01*
X0027473Y0145158D01*
X0027500Y0144994D01*
X0027522Y0144829D01*
X0027540Y0144664D01*
X0027555Y0144498D01*
X0027565Y0144332D01*
X0027571Y0144166D01*
X0027573Y0144000D01*
X0027571Y0143834D01*
X0027565Y0143668D01*
X0027555Y0143502D01*
X0027540Y0143336D01*
X0027522Y0143171D01*
X0027500Y0143006D01*
X0027473Y0142842D01*
X0027443Y0142679D01*
X0027408Y0142516D01*
X0027370Y0142354D01*
X0027328Y0142194D01*
X0027281Y0142034D01*
X0027231Y0141875D01*
X0027177Y0141718D01*
X0027119Y0141562D01*
X0027057Y0141408D01*
X0026992Y0141255D01*
X0026923Y0141104D01*
X0026850Y0140955D01*
X0026773Y0140807D01*
X0026693Y0140662D01*
X0026609Y0140518D01*
X0026522Y0140376D01*
X0026432Y0140237D01*
X0026338Y0140100D01*
X0026240Y0139965D01*
X0026139Y0139833D01*
X0026036Y0139703D01*
X0025929Y0139576D01*
X0025818Y0139452D01*
X0025705Y0139330D01*
X0025589Y0139211D01*
X0025470Y0139095D01*
X0025348Y0138982D01*
X0025224Y0138871D01*
X0025097Y0138764D01*
X0024967Y0138661D01*
X0024835Y0138560D01*
X0024700Y0138462D01*
X0024563Y0138368D01*
X0024424Y0138278D01*
X0024282Y0138191D01*
X0024138Y0138107D01*
X0023993Y0138027D01*
X0023845Y0137950D01*
X0023696Y0137877D01*
X0023545Y0137808D01*
X0023392Y0137743D01*
X0023238Y0137681D01*
X0023082Y0137623D01*
X0022925Y0137569D01*
X0022766Y0137519D01*
X0022606Y0137472D01*
X0022446Y0137430D01*
X0022284Y0137392D01*
X0022121Y0137357D01*
X0021958Y0137327D01*
X0021794Y0137300D01*
X0021629Y0137278D01*
X0021464Y0137260D01*
X0021298Y0137245D01*
X0021132Y0137235D01*
X0020966Y0137229D01*
X0020800Y0137227D01*
X0020634Y0137229D01*
X0020468Y0137235D01*
X0020302Y0137245D01*
X0020136Y0137260D01*
X0019971Y0137278D01*
X0019806Y0137300D01*
X0019642Y0137327D01*
X0019479Y0137357D01*
X0019316Y0137392D01*
X0019154Y0137430D01*
X0018994Y0137472D01*
X0018834Y0137519D01*
X0018675Y0137569D01*
X0018518Y0137623D01*
X0018362Y0137681D01*
X0018208Y0137743D01*
X0018055Y0137808D01*
X0017904Y0137877D01*
X0017755Y0137950D01*
X0017607Y0138027D01*
X0017462Y0138107D01*
X0017318Y0138191D01*
X0017176Y0138278D01*
X0017037Y0138368D01*
X0016900Y0138462D01*
X0016765Y0138560D01*
X0016633Y0138661D01*
X0016503Y0138764D01*
X0016376Y0138871D01*
X0016252Y0138982D01*
X0016130Y0139095D01*
X0016011Y0139211D01*
X0015895Y0139330D01*
X0015782Y0139452D01*
X0015671Y0139576D01*
X0015564Y0139703D01*
X0015461Y0139833D01*
X0015360Y0139965D01*
X0015262Y0140100D01*
X0015168Y0140237D01*
X0015078Y0140376D01*
X0014991Y0140518D01*
X0014907Y0140662D01*
X0014827Y0140807D01*
X0014750Y0140955D01*
X0014677Y0141104D01*
X0014608Y0141255D01*
X0014543Y0141408D01*
X0014481Y0141562D01*
X0014423Y0141718D01*
X0014369Y0141875D01*
X0014319Y0142034D01*
X0014272Y0142194D01*
X0014230Y0142354D01*
X0014192Y0142516D01*
X0014157Y0142679D01*
X0014127Y0142842D01*
X0014100Y0143006D01*
X0014078Y0143171D01*
X0014060Y0143336D01*
X0014045Y0143502D01*
X0014035Y0143668D01*
X0014029Y0143834D01*
X0014027Y0144000D01*
X0010957Y0158157D02*
X0010957Y0174299D01*
X0014501Y0177843D01*
X0015682Y0179024D01*
X0014107Y0180598D01*
X0010957Y0177843D01*
X0014501Y0177843D01*
X0030643Y0177843D01*
X0030643Y0158157D01*
X0010957Y0158157D01*
X0010957Y0174299D02*
X0010957Y0177843D01*
X0014027Y0168000D02*
X0014029Y0168166D01*
X0014035Y0168332D01*
X0014045Y0168498D01*
X0014060Y0168664D01*
X0014078Y0168829D01*
X0014100Y0168994D01*
X0014127Y0169158D01*
X0014157Y0169321D01*
X0014192Y0169484D01*
X0014230Y0169646D01*
X0014272Y0169806D01*
X0014319Y0169966D01*
X0014369Y0170125D01*
X0014423Y0170282D01*
X0014481Y0170438D01*
X0014543Y0170592D01*
X0014608Y0170745D01*
X0014677Y0170896D01*
X0014750Y0171045D01*
X0014827Y0171193D01*
X0014907Y0171338D01*
X0014991Y0171482D01*
X0015078Y0171624D01*
X0015168Y0171763D01*
X0015262Y0171900D01*
X0015360Y0172035D01*
X0015461Y0172167D01*
X0015564Y0172297D01*
X0015671Y0172424D01*
X0015782Y0172548D01*
X0015895Y0172670D01*
X0016011Y0172789D01*
X0016130Y0172905D01*
X0016252Y0173018D01*
X0016376Y0173129D01*
X0016503Y0173236D01*
X0016633Y0173339D01*
X0016765Y0173440D01*
X0016900Y0173538D01*
X0017037Y0173632D01*
X0017176Y0173722D01*
X0017318Y0173809D01*
X0017462Y0173893D01*
X0017607Y0173973D01*
X0017755Y0174050D01*
X0017904Y0174123D01*
X0018055Y0174192D01*
X0018208Y0174257D01*
X0018362Y0174319D01*
X0018518Y0174377D01*
X0018675Y0174431D01*
X0018834Y0174481D01*
X0018994Y0174528D01*
X0019154Y0174570D01*
X0019316Y0174608D01*
X0019479Y0174643D01*
X0019642Y0174673D01*
X0019806Y0174700D01*
X0019971Y0174722D01*
X0020136Y0174740D01*
X0020302Y0174755D01*
X0020468Y0174765D01*
X0020634Y0174771D01*
X0020800Y0174773D01*
X0020966Y0174771D01*
X0021132Y0174765D01*
X0021298Y0174755D01*
X0021464Y0174740D01*
X0021629Y0174722D01*
X0021794Y0174700D01*
X0021958Y0174673D01*
X0022121Y0174643D01*
X0022284Y0174608D01*
X0022446Y0174570D01*
X0022606Y0174528D01*
X0022766Y0174481D01*
X0022925Y0174431D01*
X0023082Y0174377D01*
X0023238Y0174319D01*
X0023392Y0174257D01*
X0023545Y0174192D01*
X0023696Y0174123D01*
X0023845Y0174050D01*
X0023993Y0173973D01*
X0024138Y0173893D01*
X0024282Y0173809D01*
X0024424Y0173722D01*
X0024563Y0173632D01*
X0024700Y0173538D01*
X0024835Y0173440D01*
X0024967Y0173339D01*
X0025097Y0173236D01*
X0025224Y0173129D01*
X0025348Y0173018D01*
X0025470Y0172905D01*
X0025589Y0172789D01*
X0025705Y0172670D01*
X0025818Y0172548D01*
X0025929Y0172424D01*
X0026036Y0172297D01*
X0026139Y0172167D01*
X0026240Y0172035D01*
X0026338Y0171900D01*
X0026432Y0171763D01*
X0026522Y0171624D01*
X0026609Y0171482D01*
X0026693Y0171338D01*
X0026773Y0171193D01*
X0026850Y0171045D01*
X0026923Y0170896D01*
X0026992Y0170745D01*
X0027057Y0170592D01*
X0027119Y0170438D01*
X0027177Y0170282D01*
X0027231Y0170125D01*
X0027281Y0169966D01*
X0027328Y0169806D01*
X0027370Y0169646D01*
X0027408Y0169484D01*
X0027443Y0169321D01*
X0027473Y0169158D01*
X0027500Y0168994D01*
X0027522Y0168829D01*
X0027540Y0168664D01*
X0027555Y0168498D01*
X0027565Y0168332D01*
X0027571Y0168166D01*
X0027573Y0168000D01*
X0027571Y0167834D01*
X0027565Y0167668D01*
X0027555Y0167502D01*
X0027540Y0167336D01*
X0027522Y0167171D01*
X0027500Y0167006D01*
X0027473Y0166842D01*
X0027443Y0166679D01*
X0027408Y0166516D01*
X0027370Y0166354D01*
X0027328Y0166194D01*
X0027281Y0166034D01*
X0027231Y0165875D01*
X0027177Y0165718D01*
X0027119Y0165562D01*
X0027057Y0165408D01*
X0026992Y0165255D01*
X0026923Y0165104D01*
X0026850Y0164955D01*
X0026773Y0164807D01*
X0026693Y0164662D01*
X0026609Y0164518D01*
X0026522Y0164376D01*
X0026432Y0164237D01*
X0026338Y0164100D01*
X0026240Y0163965D01*
X0026139Y0163833D01*
X0026036Y0163703D01*
X0025929Y0163576D01*
X0025818Y0163452D01*
X0025705Y0163330D01*
X0025589Y0163211D01*
X0025470Y0163095D01*
X0025348Y0162982D01*
X0025224Y0162871D01*
X0025097Y0162764D01*
X0024967Y0162661D01*
X0024835Y0162560D01*
X0024700Y0162462D01*
X0024563Y0162368D01*
X0024424Y0162278D01*
X0024282Y0162191D01*
X0024138Y0162107D01*
X0023993Y0162027D01*
X0023845Y0161950D01*
X0023696Y0161877D01*
X0023545Y0161808D01*
X0023392Y0161743D01*
X0023238Y0161681D01*
X0023082Y0161623D01*
X0022925Y0161569D01*
X0022766Y0161519D01*
X0022606Y0161472D01*
X0022446Y0161430D01*
X0022284Y0161392D01*
X0022121Y0161357D01*
X0021958Y0161327D01*
X0021794Y0161300D01*
X0021629Y0161278D01*
X0021464Y0161260D01*
X0021298Y0161245D01*
X0021132Y0161235D01*
X0020966Y0161229D01*
X0020800Y0161227D01*
X0020634Y0161229D01*
X0020468Y0161235D01*
X0020302Y0161245D01*
X0020136Y0161260D01*
X0019971Y0161278D01*
X0019806Y0161300D01*
X0019642Y0161327D01*
X0019479Y0161357D01*
X0019316Y0161392D01*
X0019154Y0161430D01*
X0018994Y0161472D01*
X0018834Y0161519D01*
X0018675Y0161569D01*
X0018518Y0161623D01*
X0018362Y0161681D01*
X0018208Y0161743D01*
X0018055Y0161808D01*
X0017904Y0161877D01*
X0017755Y0161950D01*
X0017607Y0162027D01*
X0017462Y0162107D01*
X0017318Y0162191D01*
X0017176Y0162278D01*
X0017037Y0162368D01*
X0016900Y0162462D01*
X0016765Y0162560D01*
X0016633Y0162661D01*
X0016503Y0162764D01*
X0016376Y0162871D01*
X0016252Y0162982D01*
X0016130Y0163095D01*
X0016011Y0163211D01*
X0015895Y0163330D01*
X0015782Y0163452D01*
X0015671Y0163576D01*
X0015564Y0163703D01*
X0015461Y0163833D01*
X0015360Y0163965D01*
X0015262Y0164100D01*
X0015168Y0164237D01*
X0015078Y0164376D01*
X0014991Y0164518D01*
X0014907Y0164662D01*
X0014827Y0164807D01*
X0014750Y0164955D01*
X0014677Y0165104D01*
X0014608Y0165255D01*
X0014543Y0165408D01*
X0014481Y0165562D01*
X0014423Y0165718D01*
X0014369Y0165875D01*
X0014319Y0166034D01*
X0014272Y0166194D01*
X0014230Y0166354D01*
X0014192Y0166516D01*
X0014157Y0166679D01*
X0014127Y0166842D01*
X0014100Y0167006D01*
X0014078Y0167171D01*
X0014060Y0167336D01*
X0014045Y0167502D01*
X0014035Y0167668D01*
X0014029Y0167834D01*
X0014027Y0168000D01*
X0068489Y0162500D02*
X0068493Y0162790D01*
X0068503Y0163080D01*
X0068521Y0163369D01*
X0068546Y0163658D01*
X0068578Y0163946D01*
X0068617Y0164233D01*
X0068663Y0164519D01*
X0068716Y0164804D01*
X0068776Y0165088D01*
X0068843Y0165370D01*
X0068917Y0165650D01*
X0068998Y0165929D01*
X0069085Y0166205D01*
X0069179Y0166479D01*
X0069280Y0166751D01*
X0069388Y0167020D01*
X0069502Y0167286D01*
X0069623Y0167550D01*
X0069750Y0167810D01*
X0069884Y0168068D01*
X0070023Y0168322D01*
X0070169Y0168572D01*
X0070321Y0168819D01*
X0070480Y0169062D01*
X0070644Y0169301D01*
X0070813Y0169536D01*
X0070989Y0169767D01*
X0071170Y0169993D01*
X0071357Y0170215D01*
X0071549Y0170432D01*
X0071746Y0170644D01*
X0071948Y0170852D01*
X0072156Y0171054D01*
X0072368Y0171251D01*
X0072585Y0171443D01*
X0072807Y0171630D01*
X0073033Y0171811D01*
X0073264Y0171987D01*
X0073499Y0172156D01*
X0073738Y0172320D01*
X0073981Y0172479D01*
X0074228Y0172631D01*
X0074478Y0172777D01*
X0074732Y0172916D01*
X0074990Y0173050D01*
X0075250Y0173177D01*
X0075514Y0173298D01*
X0075780Y0173412D01*
X0076049Y0173520D01*
X0076321Y0173621D01*
X0076595Y0173715D01*
X0076871Y0173802D01*
X0077150Y0173883D01*
X0077430Y0173957D01*
X0077712Y0174024D01*
X0077996Y0174084D01*
X0078281Y0174137D01*
X0078567Y0174183D01*
X0078854Y0174222D01*
X0079142Y0174254D01*
X0079431Y0174279D01*
X0079720Y0174297D01*
X0080010Y0174307D01*
X0080300Y0174311D01*
X0080590Y0174307D01*
X0080880Y0174297D01*
X0081169Y0174279D01*
X0081458Y0174254D01*
X0081746Y0174222D01*
X0082033Y0174183D01*
X0082319Y0174137D01*
X0082604Y0174084D01*
X0082888Y0174024D01*
X0083170Y0173957D01*
X0083450Y0173883D01*
X0083729Y0173802D01*
X0084005Y0173715D01*
X0084279Y0173621D01*
X0084551Y0173520D01*
X0084820Y0173412D01*
X0085086Y0173298D01*
X0085350Y0173177D01*
X0085610Y0173050D01*
X0085868Y0172916D01*
X0086122Y0172777D01*
X0086372Y0172631D01*
X0086619Y0172479D01*
X0086862Y0172320D01*
X0087101Y0172156D01*
X0087336Y0171987D01*
X0087567Y0171811D01*
X0087793Y0171630D01*
X0088015Y0171443D01*
X0088232Y0171251D01*
X0088444Y0171054D01*
X0088652Y0170852D01*
X0088854Y0170644D01*
X0089051Y0170432D01*
X0089243Y0170215D01*
X0089430Y0169993D01*
X0089611Y0169767D01*
X0089787Y0169536D01*
X0089956Y0169301D01*
X0090120Y0169062D01*
X0090279Y0168819D01*
X0090431Y0168572D01*
X0090577Y0168322D01*
X0090716Y0168068D01*
X0090850Y0167810D01*
X0090977Y0167550D01*
X0091098Y0167286D01*
X0091212Y0167020D01*
X0091320Y0166751D01*
X0091421Y0166479D01*
X0091515Y0166205D01*
X0091602Y0165929D01*
X0091683Y0165650D01*
X0091757Y0165370D01*
X0091824Y0165088D01*
X0091884Y0164804D01*
X0091937Y0164519D01*
X0091983Y0164233D01*
X0092022Y0163946D01*
X0092054Y0163658D01*
X0092079Y0163369D01*
X0092097Y0163080D01*
X0092107Y0162790D01*
X0092111Y0162500D01*
X0092107Y0162210D01*
X0092097Y0161920D01*
X0092079Y0161631D01*
X0092054Y0161342D01*
X0092022Y0161054D01*
X0091983Y0160767D01*
X0091937Y0160481D01*
X0091884Y0160196D01*
X0091824Y0159912D01*
X0091757Y0159630D01*
X0091683Y0159350D01*
X0091602Y0159071D01*
X0091515Y0158795D01*
X0091421Y0158521D01*
X0091320Y0158249D01*
X0091212Y0157980D01*
X0091098Y0157714D01*
X0090977Y0157450D01*
X0090850Y0157190D01*
X0090716Y0156932D01*
X0090577Y0156678D01*
X0090431Y0156428D01*
X0090279Y0156181D01*
X0090120Y0155938D01*
X0089956Y0155699D01*
X0089787Y0155464D01*
X0089611Y0155233D01*
X0089430Y0155007D01*
X0089243Y0154785D01*
X0089051Y0154568D01*
X0088854Y0154356D01*
X0088652Y0154148D01*
X0088444Y0153946D01*
X0088232Y0153749D01*
X0088015Y0153557D01*
X0087793Y0153370D01*
X0087567Y0153189D01*
X0087336Y0153013D01*
X0087101Y0152844D01*
X0086862Y0152680D01*
X0086619Y0152521D01*
X0086372Y0152369D01*
X0086122Y0152223D01*
X0085868Y0152084D01*
X0085610Y0151950D01*
X0085350Y0151823D01*
X0085086Y0151702D01*
X0084820Y0151588D01*
X0084551Y0151480D01*
X0084279Y0151379D01*
X0084005Y0151285D01*
X0083729Y0151198D01*
X0083450Y0151117D01*
X0083170Y0151043D01*
X0082888Y0150976D01*
X0082604Y0150916D01*
X0082319Y0150863D01*
X0082033Y0150817D01*
X0081746Y0150778D01*
X0081458Y0150746D01*
X0081169Y0150721D01*
X0080880Y0150703D01*
X0080590Y0150693D01*
X0080300Y0150689D01*
X0080010Y0150693D01*
X0079720Y0150703D01*
X0079431Y0150721D01*
X0079142Y0150746D01*
X0078854Y0150778D01*
X0078567Y0150817D01*
X0078281Y0150863D01*
X0077996Y0150916D01*
X0077712Y0150976D01*
X0077430Y0151043D01*
X0077150Y0151117D01*
X0076871Y0151198D01*
X0076595Y0151285D01*
X0076321Y0151379D01*
X0076049Y0151480D01*
X0075780Y0151588D01*
X0075514Y0151702D01*
X0075250Y0151823D01*
X0074990Y0151950D01*
X0074732Y0152084D01*
X0074478Y0152223D01*
X0074228Y0152369D01*
X0073981Y0152521D01*
X0073738Y0152680D01*
X0073499Y0152844D01*
X0073264Y0153013D01*
X0073033Y0153189D01*
X0072807Y0153370D01*
X0072585Y0153557D01*
X0072368Y0153749D01*
X0072156Y0153946D01*
X0071948Y0154148D01*
X0071746Y0154356D01*
X0071549Y0154568D01*
X0071357Y0154785D01*
X0071170Y0155007D01*
X0070989Y0155233D01*
X0070813Y0155464D01*
X0070644Y0155699D01*
X0070480Y0155938D01*
X0070321Y0156181D01*
X0070169Y0156428D01*
X0070023Y0156678D01*
X0069884Y0156932D01*
X0069750Y0157190D01*
X0069623Y0157450D01*
X0069502Y0157714D01*
X0069388Y0157980D01*
X0069280Y0158249D01*
X0069179Y0158521D01*
X0069085Y0158795D01*
X0068998Y0159071D01*
X0068917Y0159350D01*
X0068843Y0159630D01*
X0068776Y0159912D01*
X0068716Y0160196D01*
X0068663Y0160481D01*
X0068617Y0160767D01*
X0068578Y0161054D01*
X0068546Y0161342D01*
X0068521Y0161631D01*
X0068503Y0161920D01*
X0068493Y0162210D01*
X0068489Y0162500D01*
D13*
X0021286Y0200834D02*
X0018150Y0203970D01*
X0018150Y0202402D02*
X0021286Y0202402D01*
X0021286Y0203970D02*
X0018150Y0200834D01*
X0019718Y0200834D02*
X0019718Y0203970D01*
M02*
