G75*
%MOIN*%
%OFA0B0*%
%FSLAX25Y25*%
%IPPOS*%
%LPD*%
%AMOC8*
5,1,8,0,0,1.08239X$1,22.5*
%
%ADD10R,0.05906X0.05118*%
%ADD11R,0.05118X0.05906*%
%ADD12C,0.01181*%
%ADD13R,0.01575X0.05709*%
%ADD14R,0.06693X0.08661*%
%ADD15R,0.06693X0.07087*%
%ADD16R,0.04724X0.05709*%
%ADD17R,0.05906X0.03543*%
%ADD18R,0.03937X0.03937*%
%ADD19R,0.06000X0.03000*%
%ADD20R,0.06300X0.04600*%
%ADD21R,0.02165X0.04724*%
%ADD22R,0.01181X0.03898*%
%ADD23R,0.07874X0.04724*%
%ADD24R,0.03200X0.01100*%
%ADD25R,0.03200X0.01200*%
%ADD26R,0.01100X0.03200*%
%ADD27R,0.01200X0.03200*%
%ADD28R,0.09000X0.09000*%
%ADD29R,0.03543X0.02756*%
%ADD30R,0.02756X0.03543*%
D10*
X0008300Y0184260D03*
X0008300Y0191740D03*
X0071800Y0189760D03*
X0071800Y0197240D03*
D11*
X0046540Y0146000D03*
X0039060Y0146000D03*
D12*
X0041725Y0108378D02*
X0041725Y0105622D01*
X0038969Y0105622D01*
X0038969Y0108378D01*
X0041725Y0108378D01*
X0041725Y0106802D02*
X0038969Y0106802D01*
X0038969Y0107982D02*
X0041725Y0107982D01*
X0048631Y0108378D02*
X0048631Y0105622D01*
X0045875Y0105622D01*
X0045875Y0108378D01*
X0048631Y0108378D01*
X0048631Y0106802D02*
X0045875Y0106802D01*
X0045875Y0107982D02*
X0048631Y0107982D01*
X0072725Y0108378D02*
X0072725Y0105622D01*
X0069969Y0105622D01*
X0069969Y0108378D01*
X0072725Y0108378D01*
X0072725Y0106802D02*
X0069969Y0106802D01*
X0069969Y0107982D02*
X0072725Y0107982D01*
X0079631Y0108378D02*
X0079631Y0105622D01*
X0076875Y0105622D01*
X0076875Y0108378D01*
X0079631Y0108378D01*
X0079631Y0106802D02*
X0076875Y0106802D01*
X0076875Y0107982D02*
X0079631Y0107982D01*
D13*
X0058918Y0209744D03*
X0056359Y0209744D03*
X0053800Y0209744D03*
X0051241Y0209744D03*
X0048682Y0209744D03*
D14*
X0034509Y0225000D03*
X0073091Y0225000D03*
D15*
X0073091Y0215551D03*
X0034509Y0215551D03*
D16*
X0044548Y0209744D03*
X0063052Y0209744D03*
D17*
X0030446Y0174496D03*
X0030446Y0161504D03*
X0030446Y0150496D03*
X0030446Y0137504D03*
X0011154Y0137504D03*
X0011154Y0150496D03*
X0011154Y0161504D03*
X0011154Y0174496D03*
D18*
X0047800Y0185063D03*
X0047800Y0192937D03*
X0056300Y0192937D03*
X0056300Y0185063D03*
D19*
X0075800Y0135000D03*
X0075800Y0120000D03*
X0097800Y0120000D03*
X0097800Y0135000D03*
X0032800Y0126500D03*
X0032800Y0111500D03*
X0010800Y0111500D03*
X0010800Y0126500D03*
D20*
X0096300Y0196000D03*
X0096300Y0202000D03*
D21*
X0090540Y0213882D03*
X0086800Y0213882D03*
X0083060Y0213882D03*
X0083060Y0224118D03*
X0090540Y0224118D03*
D22*
X0057859Y0124689D03*
X0055300Y0124689D03*
X0052741Y0124689D03*
X0052741Y0118350D03*
X0055300Y0118350D03*
X0057859Y0118350D03*
D23*
X0025272Y0037283D03*
X0025272Y0045157D03*
X0025272Y0053031D03*
X0025272Y0060906D03*
X0025272Y0068780D03*
X0025272Y0076654D03*
X0025272Y0084528D03*
X0025272Y0092402D03*
X0084328Y0092402D03*
X0084328Y0084528D03*
X0084328Y0076654D03*
X0084328Y0068780D03*
X0084328Y0060906D03*
X0084328Y0053031D03*
X0084328Y0045157D03*
X0084328Y0037283D03*
D24*
X0039250Y0190079D03*
X0039250Y0199921D03*
X0024350Y0199921D03*
X0024350Y0190079D03*
D25*
X0024350Y0192047D03*
X0024350Y0194016D03*
X0024350Y0195984D03*
X0024350Y0197953D03*
X0039250Y0197953D03*
X0039250Y0195984D03*
X0039250Y0194016D03*
X0039250Y0192047D03*
D26*
X0036721Y0187550D03*
X0036721Y0202450D03*
X0026879Y0202450D03*
X0026879Y0187550D03*
D27*
X0028847Y0187550D03*
X0030816Y0187550D03*
X0032784Y0187550D03*
X0034753Y0187550D03*
X0034753Y0202450D03*
X0032784Y0202450D03*
X0030816Y0202450D03*
X0028847Y0202450D03*
D28*
X0031800Y0195000D03*
D29*
X0041800Y0176559D03*
X0041800Y0171441D03*
X0053800Y0138559D03*
X0053800Y0133441D03*
X0059800Y0134441D03*
X0059800Y0139559D03*
X0065800Y0139059D03*
X0065800Y0133941D03*
X0069300Y0124059D03*
X0069300Y0118941D03*
X0064800Y0107559D03*
X0064800Y0102441D03*
X0058800Y0102441D03*
X0058800Y0107559D03*
X0052800Y0107559D03*
X0052800Y0102441D03*
X0044800Y0118441D03*
X0044800Y0123559D03*
X0039800Y0123559D03*
X0039800Y0118441D03*
X0063300Y0191941D03*
X0063300Y0197059D03*
X0081300Y0196059D03*
X0081300Y0190941D03*
D30*
X0081359Y0205500D03*
X0076241Y0205500D03*
X0045359Y0138000D03*
X0045359Y0132000D03*
X0040241Y0132000D03*
X0040241Y0138000D03*
X0038241Y0162000D03*
X0043359Y0162000D03*
X0084241Y0104000D03*
X0089359Y0104000D03*
M02*
