%
M48
M72
T01C0.0160
T02C0.0394
T03C0.0400
T04C0.0787
T05C0.2000
%
T01
X1330Y4400
X1780Y4350
X1350Y6520
X1530Y7400
X2480Y9900
X1930Y10350
X1680Y10750
X2080Y11160
X2430Y11750
X3580Y10400
X4030Y10200
X4380Y9850
X5080Y9880
X4200Y11490
X4550Y12770
X5230Y12950
X5980Y13050
X6230Y12650
X6480Y12950
X6300Y12140
X6830Y11400
X7430Y10200
X7830Y9900
X8730Y11500
X9380Y11650
X9780Y12450
X9880Y12950
X8730Y13150
X8430Y12850
X8430Y13450
X7480Y12500
X7350Y13120
X7030Y14000
X6440Y16270
X6980Y18500
X7690Y19200
X7830Y20050
X8330Y21950
X7880Y22350
X9230Y18450
X8430Y16300
X6130Y18600
X5200Y19300
X4830Y20100
X4530Y20400
X4360Y19300
X3980Y20600
X3590Y20680
X3180Y19700
X3080Y20700
X1830Y19800
X1880Y19350
X1730Y18150
X1430Y16950
X1830Y16500
X2520Y16130
X2780Y15550
X2680Y14600
X3580Y14926
X3930Y15250
X3680Y15800
X3830Y16750
X3580Y17300
X3580Y17850
X3330Y16850
X4280Y15750
X4530Y15200
X4730Y15750
X4450Y16680
X4680Y17800
X5180Y14650
X6480Y9550
X7830Y4500
X7530Y4200
X6180Y3750
X3580Y7000
X3280Y7300
X3180Y8450
X3130Y4600
X1030Y11950
X780Y20350
X9130Y6500
X9680Y21350
T02
X5274Y17234
X5274Y16250
X5274Y15266
T03
X800Y3900
X800Y4900
X800Y5900
X800Y6900
X800Y7900
X800Y8900
X800Y9900
X9760Y9900
X9760Y8900
X9760Y7900
X9760Y6900
X9760Y5900
X9760Y4900
X9760Y3900
X9760Y10900
T04
X8030Y14518
X8030Y17982
T05
X1740Y21620
M30
