G75*
%MOIN*%
%OFA0B0*%
%FSLAX25Y25*%
%IPPOS*%
%LPD*%
%AMOC8*
5,1,8,0,0,1.08239X$1,22.5*
%
%ADD10C,0.20600*%
%ADD11C,0.08000*%
%ADD12C,0.12800*%
%ADD13C,0.08400*%
%ADD14R,0.00300X0.01800*%
%ADD15R,0.00300X0.02700*%
%ADD16R,0.00300X0.03900*%
%ADD17R,0.00300X0.03600*%
%ADD18R,0.00300X0.04500*%
%ADD19R,0.00300X0.04800*%
%ADD20R,0.00300X0.05100*%
%ADD21R,0.00300X0.05400*%
%ADD22R,0.00300X0.06000*%
%ADD23R,0.00300X0.05700*%
%ADD24R,0.00300X0.06300*%
%ADD25R,0.00300X0.06600*%
%ADD26R,0.00300X0.07200*%
%ADD27R,0.00300X0.08100*%
%ADD28R,0.00300X0.08700*%
%ADD29R,0.00300X0.09300*%
%ADD30R,0.00300X0.09900*%
%ADD31R,0.00300X0.07500*%
%ADD32R,0.00300X0.03000*%
%ADD33R,0.00300X0.06900*%
%ADD34R,0.00300X0.00900*%
%ADD35R,0.00300X0.02100*%
%ADD36R,0.00300X0.00600*%
%ADD37R,0.00300X0.02400*%
%ADD38R,0.00300X0.04200*%
%ADD39R,0.00300X0.01200*%
%ADD40R,0.00300X0.01500*%
%ADD41R,0.00300X0.03300*%
%ADD42R,0.00300X0.00300*%
%ADD43R,0.00300X0.07800*%
%ADD44R,0.00300X0.09000*%
%ADD45C,0.03600*%
D10*
X0017400Y0216200D03*
D11*
X0008000Y0039000D03*
X0008000Y0049000D03*
X0008000Y0059000D03*
X0008000Y0069000D03*
X0008000Y0079000D03*
X0008000Y0089000D03*
X0008000Y0099000D03*
X0097600Y0099000D03*
X0097600Y0089000D03*
X0097600Y0079000D03*
X0097600Y0069000D03*
X0097600Y0059000D03*
X0097600Y0049000D03*
X0097600Y0039000D03*
X0097600Y0109000D03*
D12*
X0080300Y0145177D03*
X0080300Y0179823D03*
D13*
X0052741Y0172343D03*
X0052741Y0162500D03*
X0052741Y0152657D03*
D14*
X0032800Y0096950D03*
X0045100Y0087950D03*
X0045700Y0086450D03*
X0044500Y0083150D03*
X0049600Y0072050D03*
X0047500Y0069050D03*
X0050200Y0063950D03*
X0053800Y0060050D03*
X0055900Y0060950D03*
X0059800Y0060350D03*
X0064900Y0071750D03*
X0066100Y0065750D03*
X0068800Y0068150D03*
X0069100Y0068450D03*
X0067900Y0085550D03*
X0079300Y0085550D03*
X0079300Y0050450D03*
X0055600Y0075050D03*
X0045100Y0053750D03*
X0045400Y0050750D03*
X0042400Y0048050D03*
X0040300Y0048050D03*
X0032800Y0039050D03*
X0043000Y0067250D03*
X0052000Y0050450D03*
X0049900Y0046550D03*
D15*
X0048700Y0046400D03*
X0048400Y0047300D03*
X0048100Y0048500D03*
X0049600Y0043100D03*
X0049900Y0043100D03*
X0048700Y0042800D03*
X0048400Y0042800D03*
X0047800Y0042500D03*
X0047500Y0042500D03*
X0045400Y0041900D03*
X0045100Y0041900D03*
X0044500Y0041600D03*
X0044200Y0041600D03*
X0043900Y0041600D03*
X0043300Y0041300D03*
X0041800Y0041000D03*
X0041500Y0041000D03*
X0040900Y0040700D03*
X0040600Y0040700D03*
X0039700Y0040400D03*
X0039400Y0040400D03*
X0038500Y0040100D03*
X0038200Y0040100D03*
X0037300Y0039800D03*
X0037000Y0039800D03*
X0036400Y0039500D03*
X0033100Y0039200D03*
X0043600Y0048200D03*
X0045400Y0062900D03*
X0044500Y0063500D03*
X0043600Y0064100D03*
X0043300Y0064400D03*
X0042700Y0064700D03*
X0042400Y0065000D03*
X0041500Y0065600D03*
X0041200Y0065900D03*
X0041200Y0070100D03*
X0041500Y0070400D03*
X0042100Y0070700D03*
X0042400Y0071000D03*
X0042700Y0071300D03*
X0043000Y0071300D03*
X0043300Y0071600D03*
X0043600Y0071900D03*
X0043900Y0071900D03*
X0044200Y0072200D03*
X0044500Y0072500D03*
X0044800Y0072800D03*
X0045100Y0072800D03*
X0045400Y0073100D03*
X0045700Y0073400D03*
X0046000Y0073400D03*
X0046300Y0073700D03*
X0046600Y0074000D03*
X0044800Y0067100D03*
X0050200Y0083000D03*
X0052600Y0078200D03*
X0055900Y0080300D03*
X0056200Y0080300D03*
X0056800Y0080600D03*
X0057100Y0080600D03*
X0057400Y0080600D03*
X0057700Y0080600D03*
X0058300Y0080300D03*
X0058600Y0080300D03*
X0060400Y0079100D03*
X0062500Y0077600D03*
X0058000Y0071000D03*
X0057400Y0070700D03*
X0057100Y0070700D03*
X0056800Y0070700D03*
X0056500Y0071000D03*
X0056200Y0071000D03*
X0056500Y0065000D03*
X0056800Y0065000D03*
X0057100Y0065000D03*
X0057400Y0065000D03*
X0057700Y0065000D03*
X0058000Y0065000D03*
X0058000Y0055400D03*
X0057700Y0055400D03*
X0057400Y0055400D03*
X0057100Y0055400D03*
X0056800Y0055400D03*
X0056500Y0055400D03*
X0059800Y0045800D03*
X0060100Y0045800D03*
X0060400Y0045800D03*
X0061000Y0046100D03*
X0061300Y0046100D03*
X0061600Y0046100D03*
X0062500Y0046400D03*
X0062800Y0046400D03*
X0063400Y0046700D03*
X0063700Y0046700D03*
X0064600Y0047000D03*
X0064900Y0047000D03*
X0066100Y0047300D03*
X0066700Y0047600D03*
X0067000Y0047600D03*
X0069100Y0048200D03*
X0069400Y0048200D03*
X0070300Y0048500D03*
X0070600Y0048500D03*
X0071500Y0048800D03*
X0071800Y0048800D03*
X0072400Y0049100D03*
X0072700Y0049100D03*
X0073000Y0049100D03*
X0073600Y0049400D03*
X0073900Y0049400D03*
X0074800Y0049700D03*
X0078400Y0050600D03*
X0078700Y0050600D03*
X0071500Y0064700D03*
X0071800Y0065000D03*
X0072100Y0065000D03*
X0072400Y0065300D03*
X0072700Y0065600D03*
X0073300Y0069800D03*
X0072700Y0070400D03*
X0072400Y0070700D03*
X0071800Y0071000D03*
X0071500Y0071300D03*
X0071200Y0071600D03*
X0070600Y0071900D03*
X0070300Y0072200D03*
X0069700Y0072500D03*
X0069400Y0072800D03*
X0069100Y0073100D03*
X0068800Y0073100D03*
X0068500Y0073400D03*
X0068200Y0073700D03*
X0067900Y0074000D03*
X0067600Y0074000D03*
X0071200Y0064400D03*
X0070300Y0063800D03*
X0069400Y0063200D03*
X0069100Y0062900D03*
X0068200Y0062300D03*
X0067300Y0061700D03*
X0059200Y0045500D03*
X0058000Y0045200D03*
X0057700Y0045200D03*
X0056800Y0044900D03*
X0056500Y0044900D03*
X0055600Y0044600D03*
X0055300Y0044600D03*
X0054700Y0044300D03*
X0054400Y0044300D03*
X0054100Y0044300D03*
X0053500Y0044000D03*
X0053200Y0044000D03*
X0052900Y0044000D03*
X0051100Y0043400D03*
X0066400Y0088400D03*
X0066700Y0088400D03*
X0067000Y0088400D03*
X0067600Y0088100D03*
X0067900Y0088100D03*
X0069400Y0087800D03*
X0070000Y0087500D03*
X0070300Y0087500D03*
X0070900Y0087200D03*
X0071200Y0087200D03*
X0072400Y0086900D03*
X0072700Y0086900D03*
X0073300Y0086600D03*
X0073600Y0086600D03*
X0073900Y0086600D03*
X0074500Y0086300D03*
X0074800Y0086300D03*
X0078700Y0085400D03*
X0065800Y0088700D03*
X0065500Y0088700D03*
X0065200Y0088700D03*
X0064600Y0089000D03*
X0064300Y0089000D03*
X0063700Y0089300D03*
X0063400Y0089300D03*
X0063100Y0089300D03*
X0062500Y0089600D03*
X0062200Y0089600D03*
X0061900Y0089600D03*
X0061300Y0089900D03*
X0061000Y0089900D03*
X0060700Y0089900D03*
X0059500Y0090200D03*
X0059200Y0090500D03*
X0058900Y0090500D03*
X0058600Y0090500D03*
X0056500Y0091100D03*
X0056200Y0091100D03*
X0055300Y0091400D03*
X0055000Y0091400D03*
X0053200Y0092000D03*
X0052900Y0092000D03*
X0052600Y0092000D03*
X0051700Y0092300D03*
X0051400Y0092300D03*
X0051100Y0092600D03*
X0050800Y0092600D03*
X0049600Y0092900D03*
X0049300Y0092900D03*
X0048700Y0093200D03*
X0048400Y0093200D03*
X0048100Y0093200D03*
X0047500Y0093500D03*
X0047200Y0093500D03*
X0046900Y0093500D03*
X0046300Y0093800D03*
X0046000Y0093800D03*
X0045400Y0094100D03*
X0045100Y0094100D03*
X0044800Y0094100D03*
X0044200Y0094400D03*
X0043900Y0094400D03*
X0043600Y0094400D03*
X0043000Y0094700D03*
X0042700Y0094700D03*
X0042400Y0094700D03*
X0041500Y0095000D03*
X0041200Y0095000D03*
X0040600Y0095300D03*
X0039700Y0095600D03*
X0039400Y0095600D03*
X0039100Y0095600D03*
X0038200Y0095900D03*
X0037900Y0095900D03*
X0037300Y0096200D03*
X0037000Y0096200D03*
X0036700Y0096200D03*
X0033100Y0096800D03*
D16*
X0039400Y0091100D03*
X0040900Y0081800D03*
X0039100Y0068000D03*
X0040900Y0053900D03*
X0046600Y0042800D03*
X0048700Y0060200D03*
X0049600Y0060200D03*
X0048700Y0075800D03*
X0055600Y0090800D03*
X0054100Y0091100D03*
X0052000Y0091700D03*
X0065500Y0076100D03*
X0067000Y0067700D03*
X0064600Y0060200D03*
X0067900Y0048500D03*
X0062200Y0047000D03*
X0058900Y0046100D03*
X0077200Y0050900D03*
X0077500Y0085100D03*
X0033400Y0039500D03*
D17*
X0041200Y0054350D03*
X0041500Y0054650D03*
X0042700Y0055550D03*
X0044800Y0057050D03*
X0049000Y0060050D03*
X0052000Y0062150D03*
X0052900Y0062750D03*
X0053200Y0072950D03*
X0049600Y0075650D03*
X0046600Y0084350D03*
X0045100Y0078650D03*
X0042100Y0080750D03*
X0041800Y0081050D03*
X0041500Y0081350D03*
X0041200Y0081650D03*
X0038800Y0067850D03*
X0049300Y0043250D03*
X0052300Y0044150D03*
X0058000Y0048950D03*
X0065500Y0060050D03*
X0067600Y0058250D03*
X0068500Y0057650D03*
X0070900Y0055850D03*
X0068800Y0051650D03*
X0067600Y0048050D03*
X0074200Y0053450D03*
X0077500Y0050750D03*
X0077800Y0050750D03*
X0075400Y0067850D03*
X0069700Y0079250D03*
X0070600Y0079850D03*
X0070900Y0080150D03*
X0071800Y0080750D03*
X0072700Y0081350D03*
X0073000Y0081650D03*
X0073900Y0082250D03*
X0074200Y0082550D03*
X0071500Y0086750D03*
X0068800Y0087350D03*
X0068500Y0078350D03*
X0067600Y0077750D03*
X0065200Y0075950D03*
X0064600Y0075650D03*
X0061900Y0073550D03*
X0061600Y0073250D03*
X0058600Y0085850D03*
X0059800Y0089750D03*
X0054400Y0091250D03*
X0041800Y0094550D03*
X0033400Y0096350D03*
X0043000Y0041750D03*
X0077800Y0085250D03*
D18*
X0074800Y0068000D03*
X0068500Y0087200D03*
X0060100Y0089300D03*
X0049900Y0092000D03*
X0040000Y0083000D03*
X0050200Y0060200D03*
X0050500Y0044000D03*
X0064000Y0060200D03*
X0064300Y0060200D03*
X0068200Y0048800D03*
X0065500Y0047900D03*
X0033700Y0039800D03*
D19*
X0039700Y0052250D03*
X0040000Y0052850D03*
X0042700Y0042350D03*
X0046300Y0043250D03*
X0049000Y0043850D03*
X0048100Y0060050D03*
X0050200Y0075650D03*
X0050500Y0075650D03*
X0048100Y0075950D03*
X0039700Y0067850D03*
X0033700Y0096050D03*
X0061900Y0047150D03*
X0065200Y0048050D03*
X0068500Y0048950D03*
X0066100Y0060050D03*
X0064000Y0075650D03*
X0066100Y0075950D03*
X0066400Y0075950D03*
X0068200Y0087050D03*
X0076600Y0084950D03*
X0076600Y0051050D03*
D20*
X0076300Y0051200D03*
X0076000Y0051200D03*
X0074500Y0068000D03*
X0066400Y0059900D03*
X0063700Y0060200D03*
X0058600Y0046700D03*
X0050500Y0060200D03*
X0047800Y0060200D03*
X0047800Y0075800D03*
X0039700Y0083600D03*
X0042100Y0093800D03*
X0063700Y0075800D03*
X0076000Y0084800D03*
X0076300Y0084800D03*
X0034000Y0040100D03*
D21*
X0039400Y0051650D03*
X0040000Y0067850D03*
X0047500Y0060050D03*
X0047500Y0075950D03*
X0050800Y0075650D03*
X0057700Y0089450D03*
X0063400Y0075650D03*
X0066700Y0075950D03*
X0074200Y0067850D03*
X0066700Y0060050D03*
X0075700Y0084650D03*
X0039400Y0084050D03*
X0034000Y0095750D03*
D22*
X0038800Y0085250D03*
X0040600Y0067850D03*
X0047200Y0060050D03*
X0050200Y0044750D03*
X0063100Y0060050D03*
X0067000Y0060050D03*
X0063100Y0075650D03*
X0058300Y0085550D03*
X0051100Y0075650D03*
X0047200Y0075950D03*
X0034300Y0040550D03*
X0075100Y0051350D03*
X0075400Y0051350D03*
D23*
X0075700Y0051200D03*
X0073900Y0068000D03*
X0067000Y0076100D03*
X0063400Y0060200D03*
X0075400Y0084500D03*
X0051100Y0060200D03*
X0050800Y0060200D03*
X0040300Y0068000D03*
X0039100Y0084800D03*
X0034300Y0095300D03*
X0039100Y0051200D03*
D24*
X0038800Y0050600D03*
X0042100Y0046100D03*
X0034600Y0041000D03*
X0046900Y0075800D03*
X0051400Y0075800D03*
X0055900Y0089600D03*
X0067300Y0076100D03*
X0073600Y0068000D03*
X0075100Y0084500D03*
X0062800Y0060200D03*
X0058300Y0047000D03*
X0051400Y0060200D03*
D25*
X0042400Y0042950D03*
X0038500Y0050150D03*
X0040900Y0067850D03*
X0038500Y0085850D03*
X0038200Y0086450D03*
X0034600Y0094850D03*
X0058000Y0088850D03*
X0062800Y0075650D03*
D26*
X0037900Y0087050D03*
X0037300Y0088550D03*
X0037000Y0089150D03*
X0036700Y0090050D03*
X0036400Y0090650D03*
X0034900Y0094550D03*
X0037600Y0048050D03*
X0037300Y0047450D03*
X0037000Y0046550D03*
X0034900Y0041450D03*
D27*
X0035200Y0041900D03*
X0035200Y0094100D03*
D28*
X0035500Y0093800D03*
X0035500Y0042200D03*
D29*
X0035800Y0042800D03*
X0035800Y0093200D03*
D30*
X0036100Y0092900D03*
X0036100Y0043100D03*
D31*
X0036400Y0045200D03*
X0036700Y0045800D03*
D32*
X0037600Y0039950D03*
X0037900Y0039950D03*
X0038800Y0040250D03*
X0039100Y0040250D03*
X0040000Y0040550D03*
X0040300Y0040550D03*
X0041200Y0040850D03*
X0042100Y0041150D03*
X0043600Y0041450D03*
X0044800Y0041750D03*
X0045700Y0042050D03*
X0046000Y0042050D03*
X0046900Y0042350D03*
X0047200Y0042350D03*
X0048100Y0042650D03*
X0051400Y0043550D03*
X0051700Y0043550D03*
X0053800Y0044150D03*
X0055000Y0044450D03*
X0055900Y0044750D03*
X0056200Y0044750D03*
X0057100Y0045050D03*
X0057400Y0045050D03*
X0059500Y0045650D03*
X0060700Y0045950D03*
X0063100Y0046550D03*
X0064000Y0046850D03*
X0064300Y0046850D03*
X0066400Y0047450D03*
X0068800Y0048050D03*
X0069700Y0048350D03*
X0070000Y0048350D03*
X0070900Y0048650D03*
X0071200Y0048650D03*
X0072100Y0048950D03*
X0073300Y0049250D03*
X0074200Y0049550D03*
X0074500Y0049550D03*
X0078100Y0050750D03*
X0070600Y0063950D03*
X0070900Y0064250D03*
X0070000Y0063650D03*
X0069700Y0063350D03*
X0068800Y0062750D03*
X0068500Y0062450D03*
X0067900Y0062150D03*
X0067600Y0061850D03*
X0066100Y0069350D03*
X0062200Y0077750D03*
X0061900Y0078050D03*
X0061600Y0078350D03*
X0061300Y0078350D03*
X0061000Y0078650D03*
X0060700Y0078950D03*
X0060100Y0079250D03*
X0059800Y0079550D03*
X0059500Y0079850D03*
X0059200Y0079850D03*
X0058900Y0080150D03*
X0058000Y0080450D03*
X0056500Y0080450D03*
X0055600Y0080150D03*
X0055300Y0080150D03*
X0055000Y0079850D03*
X0054700Y0079550D03*
X0054400Y0079550D03*
X0054100Y0079250D03*
X0053800Y0078950D03*
X0053500Y0078950D03*
X0053200Y0078650D03*
X0052900Y0078350D03*
X0052300Y0078050D03*
X0052000Y0077750D03*
X0051700Y0077450D03*
X0049600Y0085550D03*
X0053500Y0091850D03*
X0053800Y0091850D03*
X0054700Y0091550D03*
X0056800Y0090950D03*
X0058300Y0090650D03*
X0060400Y0090050D03*
X0061600Y0089750D03*
X0062800Y0089450D03*
X0064000Y0089150D03*
X0064900Y0088850D03*
X0066100Y0088550D03*
X0067300Y0088250D03*
X0069100Y0087650D03*
X0069700Y0087650D03*
X0070600Y0087350D03*
X0071800Y0087050D03*
X0072100Y0087050D03*
X0073000Y0086750D03*
X0074200Y0086450D03*
X0078100Y0085250D03*
X0078400Y0085250D03*
X0075700Y0067850D03*
X0073300Y0066050D03*
X0073000Y0065750D03*
X0062500Y0058250D03*
X0061600Y0057650D03*
X0060700Y0057050D03*
X0060400Y0056750D03*
X0058900Y0055850D03*
X0058600Y0055550D03*
X0058300Y0055550D03*
X0056200Y0055550D03*
X0055900Y0055550D03*
X0055300Y0055850D03*
X0055000Y0056150D03*
X0054100Y0056750D03*
X0053200Y0057350D03*
X0052300Y0057950D03*
X0052000Y0058250D03*
X0055900Y0064850D03*
X0056200Y0064850D03*
X0058300Y0064850D03*
X0058600Y0064850D03*
X0058900Y0064550D03*
X0060700Y0063350D03*
X0057700Y0070850D03*
X0058300Y0071150D03*
X0058600Y0071150D03*
X0058900Y0071450D03*
X0055900Y0071150D03*
X0046900Y0061850D03*
X0046600Y0062150D03*
X0046300Y0062150D03*
X0046000Y0062450D03*
X0045700Y0062750D03*
X0045100Y0063050D03*
X0044800Y0063350D03*
X0044200Y0063650D03*
X0043900Y0063950D03*
X0043000Y0064550D03*
X0042100Y0065150D03*
X0041800Y0065450D03*
X0038500Y0067850D03*
X0043300Y0049550D03*
X0036700Y0039650D03*
X0057700Y0049550D03*
X0049000Y0093050D03*
X0047800Y0093350D03*
X0046600Y0093650D03*
X0045700Y0093950D03*
X0044500Y0094250D03*
X0043300Y0094550D03*
X0040900Y0095150D03*
X0038800Y0095750D03*
X0038500Y0095750D03*
X0037600Y0096050D03*
X0036400Y0096350D03*
D33*
X0037600Y0087800D03*
X0038200Y0049400D03*
X0037900Y0048800D03*
D34*
X0041200Y0046700D03*
X0044800Y0046400D03*
X0045400Y0046100D03*
X0045700Y0045800D03*
X0047500Y0049700D03*
X0047200Y0050000D03*
X0046600Y0053900D03*
X0048400Y0054500D03*
X0049300Y0054500D03*
X0049600Y0054800D03*
X0049600Y0056300D03*
X0048400Y0056300D03*
X0049600Y0063200D03*
X0048400Y0064700D03*
X0048700Y0065000D03*
X0048400Y0067400D03*
X0051400Y0068900D03*
X0052000Y0068600D03*
X0052600Y0068300D03*
X0053500Y0067700D03*
X0054100Y0067400D03*
X0056200Y0067400D03*
X0057400Y0067700D03*
X0058300Y0068000D03*
X0058600Y0068000D03*
X0058900Y0068000D03*
X0059200Y0067700D03*
X0059800Y0067400D03*
X0060400Y0067100D03*
X0061000Y0066800D03*
X0061300Y0066500D03*
X0061600Y0066200D03*
X0059200Y0061100D03*
X0057700Y0061400D03*
X0056200Y0059000D03*
X0056500Y0058700D03*
X0055600Y0059300D03*
X0053800Y0049400D03*
X0054400Y0048500D03*
X0060400Y0050000D03*
X0060700Y0049700D03*
X0061000Y0049700D03*
X0061300Y0049400D03*
X0061600Y0049100D03*
X0061600Y0053600D03*
X0062800Y0053900D03*
X0063700Y0054200D03*
X0064000Y0054200D03*
X0064900Y0054800D03*
X0066100Y0055700D03*
X0064300Y0050600D03*
X0064600Y0050300D03*
X0064900Y0050300D03*
X0069100Y0053300D03*
X0070300Y0053000D03*
X0070900Y0052400D03*
X0070300Y0051800D03*
X0069400Y0051200D03*
X0066100Y0063500D03*
X0064900Y0065000D03*
X0065200Y0065300D03*
X0065800Y0065600D03*
X0064300Y0064400D03*
X0065500Y0070700D03*
X0065200Y0071000D03*
X0064600Y0071600D03*
X0065200Y0072200D03*
X0066400Y0072500D03*
X0069700Y0069500D03*
X0069400Y0069200D03*
X0070600Y0069500D03*
X0070600Y0067700D03*
X0067600Y0081200D03*
X0068200Y0081500D03*
X0068500Y0081800D03*
X0069100Y0082100D03*
X0064000Y0083300D03*
X0063100Y0083300D03*
X0062800Y0083600D03*
X0062200Y0084200D03*
X0062800Y0084800D03*
X0064000Y0085100D03*
X0062200Y0081500D03*
X0060400Y0083600D03*
X0059800Y0084200D03*
X0059200Y0084800D03*
X0059800Y0083000D03*
X0058600Y0082700D03*
X0058900Y0076400D03*
X0056200Y0075500D03*
X0053500Y0083300D03*
X0052300Y0082400D03*
X0050800Y0081500D03*
X0051700Y0080600D03*
X0053200Y0086600D03*
X0045400Y0087500D03*
X0045700Y0084200D03*
X0044800Y0083900D03*
X0045100Y0082100D03*
X0045700Y0082100D03*
X0043000Y0087200D03*
X0043900Y0090200D03*
X0043300Y0090500D03*
X0042700Y0091100D03*
X0040600Y0088100D03*
X0040900Y0087800D03*
X0048700Y0071300D03*
X0044500Y0066500D03*
X0043900Y0066200D03*
X0043300Y0066500D03*
X0043300Y0068000D03*
X0043900Y0068300D03*
X0037900Y0068000D03*
D35*
X0038200Y0068000D03*
X0045100Y0066800D03*
X0047800Y0064700D03*
X0049900Y0064100D03*
X0049900Y0055400D03*
X0050200Y0055100D03*
X0048100Y0055400D03*
X0047800Y0049100D03*
X0046000Y0045200D03*
X0043900Y0047600D03*
X0041500Y0046100D03*
X0044800Y0053300D03*
X0051700Y0050000D03*
X0057400Y0050300D03*
X0059500Y0051500D03*
X0064600Y0064400D03*
X0067300Y0067400D03*
X0070900Y0068600D03*
X0070600Y0052400D03*
X0060100Y0083600D03*
X0058900Y0085400D03*
X0062500Y0084200D03*
X0064300Y0084200D03*
X0056200Y0088100D03*
X0050500Y0082100D03*
X0048400Y0088100D03*
X0048700Y0088700D03*
X0047800Y0087200D03*
X0047500Y0086600D03*
X0049600Y0090200D03*
X0042400Y0091700D03*
X0079000Y0085400D03*
D36*
X0079600Y0085550D03*
X0069400Y0082250D03*
X0068800Y0081950D03*
X0067900Y0081350D03*
X0067000Y0081350D03*
X0066100Y0081350D03*
X0066100Y0080150D03*
X0066400Y0080150D03*
X0066700Y0080150D03*
X0067000Y0080150D03*
X0064000Y0079850D03*
X0063700Y0079850D03*
X0063400Y0079850D03*
X0064000Y0081050D03*
X0062500Y0081350D03*
X0063400Y0083150D03*
X0063700Y0083150D03*
X0063700Y0085250D03*
X0063400Y0085250D03*
X0063100Y0085250D03*
X0060100Y0077150D03*
X0059800Y0077150D03*
X0059500Y0077150D03*
X0060700Y0076550D03*
X0060100Y0075950D03*
X0058600Y0075950D03*
X0058300Y0075950D03*
X0058000Y0075950D03*
X0057700Y0075950D03*
X0057400Y0075650D03*
X0057100Y0075650D03*
X0056800Y0075650D03*
X0056500Y0075650D03*
X0055300Y0075650D03*
X0055000Y0075650D03*
X0054700Y0075650D03*
X0054700Y0074450D03*
X0052900Y0068150D03*
X0053200Y0067850D03*
X0053800Y0067550D03*
X0054400Y0067250D03*
X0054700Y0066950D03*
X0055000Y0066950D03*
X0055300Y0067250D03*
X0055600Y0067250D03*
X0055900Y0067250D03*
X0056500Y0067550D03*
X0056800Y0067550D03*
X0057100Y0067550D03*
X0057700Y0067850D03*
X0058000Y0067850D03*
X0059500Y0067550D03*
X0060100Y0067250D03*
X0060700Y0066950D03*
X0062200Y0066650D03*
X0062500Y0066650D03*
X0062800Y0066650D03*
X0063400Y0066050D03*
X0062200Y0065450D03*
X0065500Y0065450D03*
X0065500Y0063350D03*
X0065800Y0063350D03*
X0065200Y0063350D03*
X0064900Y0056150D03*
X0065200Y0054950D03*
X0065500Y0054950D03*
X0064300Y0054350D03*
X0063400Y0054050D03*
X0063100Y0054050D03*
X0062500Y0053750D03*
X0062200Y0053750D03*
X0061900Y0053750D03*
X0061300Y0053450D03*
X0061000Y0053450D03*
X0060700Y0053450D03*
X0061900Y0051350D03*
X0062500Y0050750D03*
X0062800Y0050750D03*
X0063100Y0050750D03*
X0064000Y0050750D03*
X0062500Y0051950D03*
X0060700Y0059450D03*
X0060400Y0059450D03*
X0060100Y0059450D03*
X0059500Y0060050D03*
X0060100Y0060650D03*
X0059500Y0060950D03*
X0058900Y0061250D03*
X0058600Y0061550D03*
X0058300Y0061550D03*
X0058000Y0061550D03*
X0057400Y0061250D03*
X0056800Y0061550D03*
X0056800Y0060350D03*
X0055900Y0059150D03*
X0055300Y0059450D03*
X0054700Y0059450D03*
X0054700Y0060650D03*
X0054400Y0060650D03*
X0054100Y0060650D03*
X0057400Y0057350D03*
X0057700Y0057350D03*
X0058000Y0057350D03*
X0058600Y0057950D03*
X0058000Y0058550D03*
X0061300Y0060050D03*
X0055000Y0049850D03*
X0055000Y0048650D03*
X0054700Y0048650D03*
X0052900Y0050150D03*
X0052600Y0049850D03*
X0052300Y0049850D03*
X0052300Y0051350D03*
X0052600Y0051350D03*
X0049000Y0054350D03*
X0048700Y0054350D03*
X0048700Y0056450D03*
X0049000Y0056450D03*
X0049300Y0056450D03*
X0046300Y0051350D03*
X0046300Y0050150D03*
X0046000Y0050150D03*
X0045700Y0050150D03*
X0046900Y0050150D03*
X0046000Y0053450D03*
X0045400Y0053450D03*
X0045400Y0054650D03*
X0045700Y0054650D03*
X0046000Y0054650D03*
X0042700Y0048050D03*
X0041800Y0048950D03*
X0041500Y0048950D03*
X0041200Y0048950D03*
X0040900Y0048950D03*
X0040000Y0048050D03*
X0040900Y0047150D03*
X0044500Y0046550D03*
X0045100Y0046250D03*
X0048700Y0063050D03*
X0049000Y0063050D03*
X0049300Y0063050D03*
X0049600Y0064850D03*
X0049300Y0065150D03*
X0049000Y0065150D03*
X0049300Y0066050D03*
X0050200Y0066050D03*
X0050200Y0067250D03*
X0049900Y0067250D03*
X0049600Y0067250D03*
X0049300Y0067250D03*
X0048700Y0067250D03*
X0050200Y0068750D03*
X0050500Y0068750D03*
X0051700Y0068750D03*
X0052300Y0068450D03*
X0050500Y0070250D03*
X0050200Y0070250D03*
X0049900Y0070250D03*
X0049300Y0069650D03*
X0049300Y0071450D03*
X0049000Y0071450D03*
X0048700Y0072650D03*
X0050500Y0080150D03*
X0051100Y0081350D03*
X0053500Y0081950D03*
X0053200Y0083150D03*
X0052900Y0083150D03*
X0052600Y0085850D03*
X0052300Y0085850D03*
X0052000Y0085850D03*
X0051400Y0086450D03*
X0052000Y0087050D03*
X0052600Y0087350D03*
X0056500Y0087950D03*
X0059500Y0084650D03*
X0059500Y0082550D03*
X0059200Y0082550D03*
X0058900Y0082550D03*
X0065500Y0072650D03*
X0065800Y0072650D03*
X0066100Y0072650D03*
X0070000Y0069650D03*
X0070300Y0069650D03*
X0070300Y0067550D03*
X0070000Y0067550D03*
X0069700Y0067550D03*
X0069700Y0053450D03*
X0070000Y0053450D03*
X0069400Y0053450D03*
X0069700Y0051350D03*
X0070000Y0051350D03*
X0079600Y0050450D03*
X0046000Y0082250D03*
X0045400Y0081950D03*
X0044800Y0082250D03*
X0045100Y0084050D03*
X0045400Y0084050D03*
X0045400Y0085850D03*
X0045100Y0085850D03*
X0044800Y0085850D03*
X0044800Y0087050D03*
X0044200Y0090050D03*
X0043600Y0090350D03*
X0043000Y0090650D03*
X0042400Y0087950D03*
X0042100Y0087950D03*
X0041800Y0087950D03*
X0041200Y0087650D03*
X0041800Y0086750D03*
X0040300Y0088250D03*
X0038800Y0091850D03*
X0043600Y0068150D03*
X0044200Y0068150D03*
X0044500Y0068150D03*
X0044200Y0066350D03*
X0043600Y0066350D03*
D37*
X0041800Y0070550D03*
X0048100Y0064250D03*
X0048400Y0071450D03*
X0053800Y0082850D03*
X0052900Y0087050D03*
X0049900Y0084050D03*
X0048100Y0087650D03*
X0047200Y0086150D03*
X0046900Y0085550D03*
X0044800Y0088850D03*
X0049000Y0089150D03*
X0049300Y0089750D03*
X0039700Y0089450D03*
X0039100Y0091550D03*
X0040600Y0048050D03*
X0054100Y0048950D03*
X0064600Y0055250D03*
X0072100Y0070850D03*
X0073000Y0070250D03*
X0070900Y0071750D03*
X0070000Y0072350D03*
X0076000Y0067850D03*
X0079000Y0050450D03*
X0061600Y0082850D03*
X0061300Y0083750D03*
X0061000Y0084950D03*
X0060700Y0086150D03*
X0060400Y0087050D03*
D38*
X0057400Y0090050D03*
X0050200Y0092150D03*
X0048400Y0075950D03*
X0049900Y0075650D03*
X0049900Y0060350D03*
X0048400Y0060050D03*
X0052600Y0044450D03*
X0040300Y0053150D03*
X0040600Y0053750D03*
X0039400Y0067850D03*
X0040600Y0082250D03*
X0040300Y0082550D03*
X0040000Y0094850D03*
X0064300Y0075650D03*
X0065800Y0075950D03*
X0065800Y0060050D03*
X0075100Y0067850D03*
X0076900Y0084950D03*
X0077200Y0084950D03*
X0076900Y0051050D03*
D39*
X0069400Y0067850D03*
X0064900Y0063650D03*
X0060400Y0053150D03*
X0060100Y0052850D03*
X0060100Y0050450D03*
X0057100Y0050750D03*
X0056800Y0051050D03*
X0056500Y0051050D03*
X0056200Y0051350D03*
X0055900Y0051350D03*
X0055600Y0051650D03*
X0055000Y0051950D03*
X0054400Y0052250D03*
X0054100Y0052550D03*
X0053500Y0052850D03*
X0052900Y0053150D03*
X0052600Y0053450D03*
X0052300Y0053450D03*
X0052000Y0053750D03*
X0051400Y0054050D03*
X0051100Y0054350D03*
X0050800Y0054350D03*
X0050500Y0054650D03*
X0051400Y0049250D03*
X0051100Y0048650D03*
X0055300Y0049250D03*
X0056800Y0058250D03*
X0057100Y0060950D03*
X0055600Y0060950D03*
X0053500Y0060050D03*
X0050500Y0066650D03*
X0051100Y0069350D03*
X0049900Y0072050D03*
X0048100Y0067850D03*
X0046300Y0065750D03*
X0048400Y0063350D03*
X0044200Y0051950D03*
X0043900Y0051350D03*
X0045100Y0050750D03*
X0044200Y0046850D03*
X0043000Y0049850D03*
X0042700Y0067250D03*
X0050200Y0080750D03*
X0049900Y0086750D03*
X0050200Y0087350D03*
X0050500Y0087950D03*
X0051100Y0088850D03*
X0051400Y0089450D03*
X0053500Y0088550D03*
X0053200Y0087950D03*
X0053800Y0089150D03*
X0055600Y0086750D03*
X0055300Y0086150D03*
X0055000Y0085550D03*
X0054100Y0084050D03*
X0054400Y0075050D03*
X0055900Y0075050D03*
X0065800Y0080750D03*
X0067300Y0080750D03*
X0069700Y0082550D03*
X0070000Y0082850D03*
X0070300Y0083450D03*
X0071200Y0084950D03*
X0066700Y0084950D03*
X0066400Y0084950D03*
X0065800Y0084650D03*
X0065500Y0084650D03*
X0046000Y0086450D03*
X0044500Y0086450D03*
X0044200Y0083150D03*
X0039700Y0093050D03*
D40*
X0040000Y0088700D03*
X0041500Y0087200D03*
X0042700Y0087200D03*
X0044500Y0089600D03*
X0046000Y0084200D03*
X0049300Y0085700D03*
X0050800Y0088400D03*
X0051700Y0089900D03*
X0051700Y0086600D03*
X0054400Y0084500D03*
X0054700Y0085100D03*
X0052600Y0082400D03*
X0051400Y0080600D03*
X0048100Y0070400D03*
X0049600Y0069500D03*
X0050800Y0069500D03*
X0049000Y0066800D03*
X0047500Y0065000D03*
X0047200Y0065300D03*
X0046900Y0065300D03*
X0046600Y0065600D03*
X0046000Y0065900D03*
X0045700Y0066200D03*
X0045400Y0066200D03*
X0047800Y0055400D03*
X0046300Y0053900D03*
X0044500Y0052400D03*
X0043600Y0050900D03*
X0046600Y0050600D03*
X0050800Y0048200D03*
X0050500Y0047600D03*
X0052900Y0046400D03*
X0053200Y0047000D03*
X0053500Y0047300D03*
X0053800Y0047900D03*
X0053200Y0050600D03*
X0053800Y0052700D03*
X0053200Y0053000D03*
X0051700Y0053900D03*
X0054700Y0052100D03*
X0055300Y0051800D03*
X0057100Y0058100D03*
X0058300Y0058100D03*
X0061000Y0060200D03*
X0061900Y0065900D03*
X0063100Y0065900D03*
X0065800Y0070100D03*
X0067000Y0071600D03*
X0068200Y0067700D03*
X0068500Y0067700D03*
X0067900Y0067400D03*
X0067600Y0067400D03*
X0071200Y0068600D03*
X0076300Y0068000D03*
X0070600Y0083900D03*
X0070900Y0084500D03*
X0067600Y0085400D03*
X0067300Y0085100D03*
X0067000Y0085100D03*
X0066100Y0084800D03*
X0065200Y0084500D03*
X0064900Y0084500D03*
X0064600Y0084200D03*
X0064300Y0080600D03*
X0063100Y0080600D03*
X0062800Y0080900D03*
X0061900Y0082100D03*
X0058000Y0083600D03*
X0059200Y0076400D03*
X0060400Y0076400D03*
X0055000Y0059900D03*
X0062200Y0051500D03*
X0063400Y0051500D03*
X0063700Y0051200D03*
X0065800Y0055700D03*
X0068500Y0052400D03*
X0069100Y0051200D03*
D41*
X0067300Y0047900D03*
X0065800Y0047600D03*
X0070300Y0056300D03*
X0070000Y0056600D03*
X0069700Y0056600D03*
X0069400Y0056900D03*
X0069100Y0057200D03*
X0068800Y0057500D03*
X0068200Y0057800D03*
X0067900Y0058100D03*
X0067300Y0058400D03*
X0065200Y0059900D03*
X0064900Y0060200D03*
X0062500Y0062000D03*
X0062200Y0062300D03*
X0061900Y0062300D03*
X0061600Y0062600D03*
X0061300Y0062900D03*
X0061000Y0063200D03*
X0060400Y0063500D03*
X0060100Y0063800D03*
X0059800Y0064100D03*
X0059500Y0064100D03*
X0059200Y0064400D03*
X0062200Y0058100D03*
X0061900Y0057800D03*
X0061300Y0057500D03*
X0061000Y0057200D03*
X0060100Y0056600D03*
X0059800Y0056300D03*
X0059500Y0056300D03*
X0059200Y0056000D03*
X0059800Y0051500D03*
X0055600Y0055700D03*
X0054700Y0056300D03*
X0054400Y0056600D03*
X0053800Y0056900D03*
X0053500Y0057200D03*
X0052900Y0057500D03*
X0052600Y0057800D03*
X0051700Y0058400D03*
X0051700Y0062000D03*
X0052300Y0062300D03*
X0052600Y0062600D03*
X0053200Y0062900D03*
X0053500Y0063200D03*
X0053800Y0063500D03*
X0054100Y0063500D03*
X0054400Y0063800D03*
X0054700Y0064100D03*
X0055000Y0064100D03*
X0055300Y0064400D03*
X0055600Y0064700D03*
X0055600Y0071300D03*
X0055300Y0071600D03*
X0055000Y0071600D03*
X0054700Y0071900D03*
X0054400Y0072200D03*
X0054100Y0072200D03*
X0053800Y0072500D03*
X0053500Y0072800D03*
X0052900Y0073100D03*
X0052600Y0073400D03*
X0052300Y0073700D03*
X0052000Y0073700D03*
X0051700Y0074000D03*
X0049300Y0075800D03*
X0049000Y0075800D03*
X0046600Y0077600D03*
X0046300Y0077900D03*
X0046000Y0077900D03*
X0045700Y0078200D03*
X0045400Y0078500D03*
X0044800Y0078800D03*
X0044500Y0079100D03*
X0044200Y0079400D03*
X0043900Y0079400D03*
X0043600Y0079700D03*
X0043300Y0080000D03*
X0043000Y0080000D03*
X0042700Y0080300D03*
X0042400Y0080600D03*
X0046300Y0083900D03*
X0050500Y0092300D03*
X0052300Y0092000D03*
X0057100Y0090500D03*
X0064900Y0075800D03*
X0062500Y0074000D03*
X0062200Y0073700D03*
X0061300Y0073100D03*
X0061000Y0072800D03*
X0060700Y0072500D03*
X0060400Y0072500D03*
X0060100Y0072200D03*
X0059800Y0071900D03*
X0059500Y0071600D03*
X0059200Y0071600D03*
X0067900Y0077900D03*
X0068200Y0078200D03*
X0068800Y0078500D03*
X0069100Y0078800D03*
X0069400Y0079100D03*
X0070000Y0079400D03*
X0070300Y0079700D03*
X0071200Y0080300D03*
X0071500Y0080600D03*
X0072100Y0080900D03*
X0072400Y0081200D03*
X0073300Y0081800D03*
X0073600Y0082100D03*
X0074500Y0082700D03*
X0074800Y0083000D03*
X0070600Y0056000D03*
X0071200Y0055700D03*
X0071500Y0055400D03*
X0071800Y0055100D03*
X0072100Y0055100D03*
X0072400Y0054800D03*
X0072700Y0054500D03*
X0073000Y0054200D03*
X0073300Y0054200D03*
X0073600Y0053900D03*
X0073900Y0053600D03*
X0074500Y0053300D03*
X0074800Y0053000D03*
X0052000Y0044000D03*
X0050800Y0043700D03*
X0044200Y0056600D03*
X0044500Y0056900D03*
X0045100Y0057200D03*
X0045400Y0057500D03*
X0045700Y0057800D03*
X0046000Y0057800D03*
X0046300Y0058100D03*
X0046600Y0058400D03*
X0046900Y0058400D03*
X0049300Y0060200D03*
X0047800Y0068900D03*
X0043900Y0056300D03*
X0043600Y0056300D03*
X0043300Y0056000D03*
X0043000Y0055700D03*
X0042400Y0055400D03*
X0042100Y0055100D03*
X0041800Y0054800D03*
X0041800Y0045800D03*
X0040300Y0095000D03*
D42*
X0042100Y0086600D03*
X0042400Y0086600D03*
X0049000Y0072800D03*
X0049300Y0072800D03*
X0049900Y0068900D03*
X0049900Y0065900D03*
X0049600Y0065900D03*
X0047200Y0069200D03*
X0050800Y0080000D03*
X0051100Y0080000D03*
X0052900Y0081800D03*
X0053200Y0081800D03*
X0052300Y0087200D03*
X0055000Y0074300D03*
X0055300Y0074300D03*
X0059500Y0075800D03*
X0059800Y0075800D03*
X0063400Y0081200D03*
X0063700Y0081200D03*
X0066400Y0081500D03*
X0066700Y0081500D03*
X0062800Y0065300D03*
X0062500Y0065300D03*
X0060700Y0060800D03*
X0060400Y0060800D03*
X0057700Y0058700D03*
X0057400Y0058700D03*
X0056500Y0060200D03*
X0056200Y0060200D03*
X0056200Y0061700D03*
X0056500Y0061700D03*
X0054400Y0059300D03*
X0054100Y0059300D03*
X0052900Y0051200D03*
X0054400Y0050000D03*
X0054700Y0050000D03*
X0059200Y0051800D03*
X0062800Y0052100D03*
X0063100Y0052100D03*
X0065200Y0056300D03*
X0065500Y0056300D03*
X0045700Y0053300D03*
X0045700Y0051500D03*
X0046000Y0051500D03*
D43*
X0066400Y0067250D03*
D44*
X0066700Y0068150D03*
D45*
X0078300Y0045000D03*
X0075300Y0042000D03*
X0061800Y0037500D03*
X0035800Y0070000D03*
X0032800Y0073000D03*
X0031800Y0084500D03*
X0024800Y0099000D03*
X0019300Y0103500D03*
X0016800Y0107500D03*
X0020800Y0111600D03*
X0024300Y0117500D03*
X0035800Y0104000D03*
X0040300Y0102000D03*
X0043800Y0098500D03*
X0050800Y0098800D03*
X0042000Y0114900D03*
X0045500Y0127700D03*
X0052300Y0129500D03*
X0059800Y0130500D03*
X0062300Y0126500D03*
X0064800Y0129500D03*
X0063000Y0121400D03*
X0068300Y0114000D03*
X0074300Y0102000D03*
X0078300Y0099000D03*
X0087300Y0115000D03*
X0093800Y0116500D03*
X0097800Y0124500D03*
X0098800Y0129500D03*
X0087300Y0131500D03*
X0084300Y0128500D03*
X0084300Y0134500D03*
X0074800Y0125000D03*
X0073500Y0131200D03*
X0070300Y0140000D03*
X0064400Y0162700D03*
X0069800Y0185000D03*
X0076900Y0192000D03*
X0078300Y0200500D03*
X0083300Y0219500D03*
X0078800Y0223500D03*
X0092300Y0184500D03*
X0084300Y0163000D03*
X0061300Y0186000D03*
X0052000Y0193000D03*
X0048300Y0201000D03*
X0045300Y0204000D03*
X0043600Y0193000D03*
X0039800Y0206000D03*
X0035900Y0206800D03*
X0031800Y0197000D03*
X0030800Y0207000D03*
X0018300Y0198000D03*
X0018800Y0193500D03*
X0017300Y0181500D03*
X0014300Y0169500D03*
X0018300Y0165000D03*
X0025200Y0161300D03*
X0027800Y0155500D03*
X0026800Y0146000D03*
X0035800Y0149260D03*
X0039300Y0152500D03*
X0036800Y0158000D03*
X0038300Y0167500D03*
X0035800Y0173000D03*
X0035800Y0178500D03*
X0033300Y0168500D03*
X0042800Y0157500D03*
X0045300Y0152000D03*
X0047300Y0157500D03*
X0044500Y0166800D03*
X0046800Y0178000D03*
X0051800Y0146500D03*
X0064800Y0095500D03*
X0091300Y0065000D03*
X0031300Y0046000D03*
X0017800Y0043500D03*
X0013300Y0044000D03*
X0013500Y0065200D03*
X0015300Y0074000D03*
X0010300Y0119500D03*
X0007800Y0203500D03*
X0096800Y0213500D03*
M02*
